<?xml version="1.0" encoding="UTF-8"?>

<svg xmlns="http://www.w3.org/2000/svg" viewBox="-1 -1 2 2" data-name="Rec_185407"
     data-beats="4" data-ppqn="128">
  <path d="M 0.4798 0.4825 C 0.4798 0.4825 0.4483 0.4942 0.4313 0.4987 C 0.4142 0.5031 0.3953 0.5058 0.3774 0.5094 C 0.3594 0.513 0.3405 0.5175 0.3234 0.5202 C 0.3064 0.5229 0.2911 0.5247 0.2749 0.5256 C 0.2588 0.5265 0.2426 0.5265 0.2264 0.5256 C 0.2102 0.5247 0.1941 0.5229 0.1779 0.5202 C 0.1617 0.5175 0.1456 0.513 0.1294 0.5094 C 0.1132 0.5058 0.0961 0.5022 0.0809 0.4987 C 0.0656 0.4951 0.0449 0.4897 0.0377 0.4879 C 0.0305 0.4861 0.0503 0.4951 0.0377 0.4879 C 0.0252 0.4807 -0.0198 0.4555 -0.0377 0.4447 C -0.0557 0.434 -0.0647 0.4268 -0.0701 0.4232 C -0.0755 0.4196 -0.0701 0.4232 -0.0701 0.4232 C -0.0701 0.4232 -0.0584 0.434 -0.0701 0.4232 C -0.0818 0.4124 -0.1231 0.3756 -0.1402 0.3585 C -0.1572 0.3414 -0.1617 0.3333 -0.1725 0.3208 C -0.1833 0.3082 -0.195 0.2956 -0.2049 0.283 C -0.2147 0.2704 -0.2219 0.2588 -0.2318 0.2453 C -0.2417 0.2318 -0.2534 0.2165 -0.2642 0.2022 C -0.2749 0.1878 -0.2857 0.1725 -0.2965 0.159 C -0.3073 0.1456 -0.3235 0.1276 -0.3288 0.1213 C -0.3342 0.115 -0.3172 0.133 -0.3288 0.1213 C -0.3405 0.1096 -0.3872 0.0629 -0.3989 0.0512 C -0.4106 0.0395 -0.3881 0.0611 -0.3989 0.0512 C -0.4097 0.0413 -0.4528 0.0018 -0.4636 -0.0081 C -0.4744 -0.018 -0.4573 -0.0036 -0.4636 -0.0081 C -0.4699 -0.0126 -0.4897 -0.027 -0.5013 -0.035 C -0.513 -0.0431 -0.5229 -0.0512 -0.5337 -0.0566 C -0.5445 -0.062 -0.5544 -0.0638 -0.566 -0.0674 C -0.5777 -0.071 -0.5921 -0.0746 -0.6038 -0.0782 C -0.6155 -0.0818 -0.6307 -0.0872 -0.6361 -0.0889 C -0.6415 -0.0907 -0.6253 -0.0889 -0.6361 -0.0889 C -0.6469 -0.0889 -0.6846 -0.0898 -0.7008 -0.0889 C -0.717 -0.0881 -0.7278 -0.0845 -0.7332 -0.0836 C -0.7385 -0.0827 -0.7242 -0.0872 -0.7332 -0.0836 C -0.7421 -0.08 -0.7736 -0.0683 -0.7871 -0.062 C -0.8005 -0.0557 -0.8059 -0.0521 -0.814 -0.0458 C -0.8221 -0.0395 -0.832 -0.0279 -0.8356 -0.0243 C -0.8392 -0.0207 -0.832 -0.0279 -0.8356 -0.0243 C -0.8392 -0.0207 -0.8482 -0.0153 -0.8571 -0.0027 C -0.8661 0.0099 -0.8823 0.0368 -0.8895 0.0512 C -0.8967 0.0656 -0.8985 0.0782 -0.9003 0.0836 C -0.9021 0.0889 -0.8985 0.0782 -0.9003 0.0836 C -0.9021 0.0889 -0.9084 0.1042 -0.9111 0.1159 C -0.9137 0.1276 -0.9155 0.142 -0.9164 0.1536 C -0.9173 0.1653 -0.9155 0.1743 -0.9164 0.186 C -0.9173 0.1977 -0.9209 0.2174 -0.9218 0.2237 C -0.9227 0.23 -0.9227 0.2111 -0.9218 0.2237 C -0.9209 0.2363 -0.9182 0.2812 -0.9164 0.2992 C -0.9146 0.3172 -0.9128 0.3199 -0.9111 0.3315 C -0.9093 0.3432 -0.9075 0.3567 -0.9057 0.3693 C -0.9039 0.3819 -0.903 0.3944 -0.9003 0.407 C -0.8976 0.4196 -0.8913 0.4385 -0.8895 0.4447 C -0.8877 0.451 -0.8913 0.4385 -0.8895 0.4447 C -0.8877 0.451 -0.8832 0.4708 -0.8787 0.4825 C -0.8742 0.4942 -0.8679 0.5031 -0.8625 0.5148 C -0.8571 0.5265 -0.8518 0.5409 -0.8464 0.5526 C -0.841 0.5642 -0.8365 0.5732 -0.8302 0.5849 C -0.8239 0.5966 -0.8158 0.611 -0.8086 0.6226 C -0.8014 0.6343 -0.7907 0.6496 -0.7871 0.655 C -0.7835 0.6604 -0.796 0.6433 -0.7871 0.655 C -0.7781 0.6667 -0.7475 0.708 -0.7332 0.7251 C -0.7188 0.7421 -0.7116 0.7466 -0.7008 0.7574 C -0.69 0.7682 -0.6792 0.7799 -0.6685 0.7898 C -0.6577 0.7996 -0.6469 0.8068 -0.6361 0.8167 C -0.6253 0.8266 -0.6146 0.8401 -0.6038 0.8491 C -0.593 0.858 -0.5831 0.8625 -0.5714 0.8706 C -0.5597 0.8787 -0.54 0.8931 -0.5337 0.8976 C -0.5274 0.9021 -0.54 0.8949 -0.5337 0.8976 C -0.5274 0.9003 -0.5085 0.9084 -0.496 0.9137 C -0.4834 0.9191 -0.4708 0.9245 -0.4582 0.9299 C -0.4456 0.9353 -0.434 0.9416 -0.4205 0.9461 C -0.407 0.9506 -0.3845 0.9551 -0.3774 0.9569 C -0.3702 0.9587 -0.3908 0.9542 -0.3774 0.9569 C -0.3639 0.9596 -0.3172 0.9695 -0.2965 0.973 C -0.2758 0.9766 -0.2606 0.9775 -0.2534 0.9784 C -0.2462 0.9793 -0.2668 0.9784 -0.2534 0.9784 C -0.2399 0.9784 -0.1923 0.9793 -0.1725 0.9784 C -0.1527 0.9775 -0.1482 0.9748 -0.1348 0.973 C -0.1213 0.9712 -0.1051 0.9704 -0.0916 0.9677 C -0.0782 0.965 -0.0602 0.9587 -0.0539 0.9569 C -0.0476 0.9551 -0.0593 0.9596 -0.0539 0.9569 C -0.0485 0.9542 -0.0332 0.9461 -0.0216 0.9407 C -0.0099 0.9353 -0.0009 0.9353 0.0162 0.9245 C 0.0332 0.9137 0.0701 0.8841 0.0809 0.876 C 0.0916 0.8679 0.0809 0.876 0.0809 0.876 C 0.0809 0.876 0.071 0.8859 0.0809 0.876 C 0.0907 0.8661 0.1258 0.832 0.1402 0.8167 C 0.1545 0.8014 0.1581 0.796 0.1671 0.7844 C 0.1761 0.7727 0.1851 0.7592 0.1941 0.7466 C 0.2031 0.7341 0.2165 0.7152 0.221 0.7089 C 0.2255 0.7026 0.2147 0.7224 0.221 0.7089 C 0.2273 0.6954 0.2507 0.6487 0.2588 0.628 C 0.2668 0.6074 0.2668 0.5993 0.2695 0.5849 C 0.2722 0.5705 0.2731 0.5562 0.2749 0.5418 C 0.2767 0.5274 0.2794 0.5058 0.2803 0.4987 C 0.2812 0.4915 0.2821 0.513 0.2803 0.4987 C 0.2785 0.4843 0.2713 0.4268 0.2695 0.4124 C 0.2677 0.398 0.2695 0.4124 0.2695 0.4124 C 0.2695 0.4124 0.2731 0.4259 0.2695 0.4124 C 0.2659 0.3989 0.2543 0.3522 0.248 0.3315 C 0.2417 0.3109 0.239 0.3019 0.2318 0.2884 C 0.2246 0.2749 0.2129 0.2633 0.2049 0.2507 C 0.1968 0.2381 0.1923 0.2255 0.1833 0.2129 C 0.1743 0.2004 0.1617 0.1878 0.1509 0.1752 C 0.1402 0.1626 0.1294 0.1491 0.1186 0.1375 C 0.1078 0.1258 0.0979 0.1159 0.0863 0.1051 C 0.0746 0.0943 0.062 0.0836 0.0485 0.0728 C 0.035 0.062 0.0126 0.0458 0.0054 0.0404 C -0.0018 0.035 0.0198 0.0503 0.0054 0.0404 C -0.009 0.0305 -0.0665 -0.009 -0.0809 -0.0189 C -0.0952 -0.0288 -0.0737 -0.0144 -0.0809 -0.0189 C -0.0881 -0.0234 -0.1087 -0.0368 -0.124 -0.0458 C -0.1393 -0.0548 -0.1572 -0.0638 -0.1725 -0.0728 C -0.1878 -0.0818 -0.2004 -0.0916 -0.2156 -0.0997 C -0.2309 -0.1078 -0.2498 -0.1132 -0.2642 -0.1213 C -0.2785 -0.1294 -0.2893 -0.1402 -0.3019 -0.1482 C -0.3145 -0.1563 -0.3333 -0.1662 -0.3396 -0.1698 C -0.3459 -0.1734 -0.3297 -0.1617 -0.3396 -0.1698 C -0.3495 -0.1779 -0.3854 -0.2075 -0.3989 -0.2183 C -0.4124 -0.2291 -0.4142 -0.2282 -0.4205 -0.2345 C -0.4268 -0.2408 -0.4322 -0.2489 -0.4367 -0.2561 C -0.4412 -0.2633 -0.4447 -0.2713 -0.4474 -0.2776 C -0.4501 -0.2839 -0.4519 -0.2911 -0.4528 -0.2938 C -0.4537 -0.2965 -0.4528 -0.2938 -0.4528 -0.2938 C -0.4528 -0.2938 -0.4519 -0.2866 -0.4528 -0.2938 C -0.4537 -0.301 -0.4582 -0.3261 -0.4582 -0.3369 C -0.4582 -0.3477 -0.4555 -0.3513 -0.4528 -0.3585 C -0.4501 -0.3657 -0.4456 -0.3729 -0.442 -0.3801 C -0.4385 -0.3872 -0.4358 -0.3953 -0.4313 -0.4016 C -0.4268 -0.4079 -0.4214 -0.4115 -0.4151 -0.4178 C -0.4088 -0.4241 -0.4007 -0.4331 -0.3935 -0.4394 C -0.3863 -0.4456 -0.3756 -0.4528 -0.372 -0.4555 C -0.3684 -0.4582 -0.3819 -0.4501 -0.372 -0.4555 C -0.3621 -0.4609 -0.3279 -0.4807 -0.3127 -0.4879 C -0.2974 -0.4951 -0.2857 -0.4969 -0.2803 -0.4987 C -0.2749 -0.5004 -0.2803 -0.4987 -0.2803 -0.4987 C -0.2803 -0.4987 -0.292 -0.496 -0.2803 -0.4987 C -0.2686 -0.5013 -0.23 -0.5112 -0.2102 -0.5148 C -0.1905 -0.5184 -0.1779 -0.5193 -0.1617 -0.5202 C -0.1456 -0.5211 -0.1303 -0.5202 -0.1132 -0.5202 C -0.0961 -0.5202 -0.0773 -0.5211 -0.0593 -0.5202 C -0.0413 -0.5193 -0.0243 -0.5166 -0.0054 -0.5148 C 0.0135 -0.513 0.035 -0.513 0.0539 -0.5094 C 0.0728 -0.5058 0.0889 -0.4987 0.1078 -0.4933 C 0.1267 -0.4879 0.1482 -0.4825 0.1671 -0.4771 C 0.186 -0.4717 0.2031 -0.4681 0.221 -0.4609 C 0.239 -0.4537 0.2659 -0.4385 0.2749 -0.434 C 0.2839 -0.4295 0.2597 -0.4429 0.2749 -0.434 C 0.2902 -0.425 0.3513 -0.389 0.3666 -0.3801 C 0.3819 -0.3711 0.3603 -0.3854 0.3666 -0.3801 C 0.3729 -0.3747 0.3863 -0.3657 0.4043 -0.3477 C 0.4223 -0.3297 0.4573 -0.292 0.4744 -0.2722 C 0.4915 -0.2525 0.5013 -0.2363 0.5067 -0.2291 C 0.5121 -0.2219 0.5022 -0.2363 0.5067 -0.2291 C 0.5112 -0.2219 0.5256 -0.2004 0.5337 -0.186 C 0.5418 -0.1716 0.5517 -0.15 0.5553 -0.1429 C 0.5588 -0.1357 0.549 -0.1608 0.5553 -0.1429 C 0.5615 -0.1249 0.584 -0.0629 0.593 -0.035 C 0.602 -0.0072 0.6092 0.0243 0.6092 0.0243 C 0.6092 0.0243 0.602 -0.0072 0.593 -0.035 C 0.584 -0.0629 0.5615 -0.1249 0.5553 -0.1429 C 0.549 -0.1608 0.5588 -0.1357 0.5553 -0.1429 C 0.5517 -0.15 0.5418 -0.1716 0.5337 -0.186 C 0.5256 -0.2004 0.5112 -0.2219 0.5067 -0.2291 C 0.5022 -0.2363 0.5121 -0.2219 0.5067 -0.2291 C 0.5013 -0.2363 0.4915 -0.2525 0.4744 -0.2722 C 0.4573 -0.292 0.4223 -0.3297 0.4043 -0.3477 C 0.3863 -0.3657 0.3729 -0.3747 0.3666 -0.3801 C 0.3603 -0.3854 0.3819 -0.3711 0.3666 -0.3801 C 0.3513 -0.389 0.2902 -0.425 0.2749 -0.434 C 0.2597 -0.4429 0.2839 -0.4295 0.2749 -0.434 C 0.2659 -0.4385 0.239 -0.4537 0.221 -0.4609 C 0.2031 -0.4681 0.186 -0.4717 0.1671 -0.4771 C 0.1482 -0.4825 0.1267 -0.4879 0.1078 -0.4933 C 0.0889 -0.4987 0.0728 -0.5058 0.0539 -0.5094 C 0.035 -0.513 0.0135 -0.513 -0.0054 -0.5148 C -0.0243 -0.5166 -0.0413 -0.5193 -0.0593 -0.5202 C -0.0773 -0.5211 -0.0961 -0.5202 -0.1132 -0.5202 C -0.1303 -0.5202 -0.1456 -0.5211 -0.1617 -0.5202 C -0.1779 -0.5193 -0.1905 -0.5184 -0.2102 -0.5148 C -0.23 -0.5112 -0.2686 -0.5013 -0.2803 -0.4987 C -0.292 -0.496 -0.2803 -0.4987 -0.2803 -0.4987 C -0.2803 -0.4987 -0.2749 -0.5004 -0.2803 -0.4987 C -0.2857 -0.4969 -0.2974 -0.4951 -0.3127 -0.4879 C -0.3279 -0.4807 -0.3621 -0.4609 -0.372 -0.4555 C -0.3819 -0.4501 -0.3684 -0.4582 -0.372 -0.4555 C -0.3756 -0.4528 -0.3863 -0.4456 -0.3935 -0.4394 C -0.4007 -0.4331 -0.4088 -0.4241 -0.4151 -0.4178 C -0.4214 -0.4115 -0.4268 -0.4079 -0.4313 -0.4016 C -0.4358 -0.3953 -0.4385 -0.3872 -0.442 -0.3801 C -0.4456 -0.3729 -0.4501 -0.3657 -0.4528 -0.3585 C -0.4555 -0.3513 -0.4582 -0.3477 -0.4582 -0.3369 C -0.4582 -0.3261 -0.4537 -0.301 -0.4528 -0.2938 C -0.4519 -0.2866 -0.4528 -0.2938 -0.4528 -0.2938 C -0.4528 -0.2938 -0.4537 -0.2965 -0.4528 -0.2938 C -0.4519 -0.2911 -0.4501 -0.2839 -0.4474 -0.2776 C -0.4447 -0.2713 -0.4412 -0.2633 -0.4367 -0.2561 C -0.4322 -0.2489 -0.4268 -0.2408 -0.4205 -0.2345 C -0.4142 -0.2282 -0.4124 -0.2291 -0.3989 -0.2183 C -0.3854 -0.2075 -0.3495 -0.1779 -0.3396 -0.1698 C -0.3297 -0.1617 -0.3459 -0.1734 -0.3396 -0.1698 C -0.3333 -0.1662 -0.3145 -0.1563 -0.3019 -0.1482 C -0.2893 -0.1402 -0.2785 -0.1294 -0.2642 -0.1213 C -0.2498 -0.1132 -0.2309 -0.1078 -0.2156 -0.0997 C -0.2004 -0.0916 -0.1878 -0.0818 -0.1725 -0.0728 C -0.1572 -0.0638 -0.1393 -0.0548 -0.124 -0.0458 C -0.1087 -0.0368 -0.0881 -0.0234 -0.0809 -0.0189 C -0.0737 -0.0144 -0.0952 -0.0288 -0.0809 -0.0189 C -0.0665 -0.009 -0.009 0.0305 0.0054 0.0404 C 0.0198 0.0503 -0.0018 0.035 0.0054 0.0404 C 0.0126 0.0458 0.035 0.062 0.0485 0.0728 C 0.062 0.0836 0.0746 0.0943 0.0863 0.1051 C 0.0979 0.1159 0.1078 0.1258 0.1186 0.1375 C 0.1294 0.1491 0.1402 0.1626 0.1509 0.1752 C 0.1617 0.1878 0.1743 0.2004 0.1833 0.2129 C 0.1923 0.2255 0.1968 0.2381 0.2049 0.2507 C 0.2129 0.2633 0.2246 0.2749 0.2318 0.2884 C 0.239 0.3019 0.2417 0.3109 0.248 0.3315 C 0.2543 0.3522 0.2659 0.3989 0.2695 0.4124 C 0.2731 0.4259 0.2695 0.4124 0.2695 0.4124 C 0.2695 0.4124 0.2677 0.398 0.2695 0.4124 C 0.2713 0.4268 0.2785 0.4843 0.2803 0.4987 C 0.2821 0.513 0.2812 0.4915 0.2803 0.4987 C 0.2794 0.5058 0.2767 0.5274 0.2749 0.5418 C 0.2731 0.5562 0.2722 0.5705 0.2695 0.5849 C 0.2668 0.5993 0.2668 0.6074 0.2588 0.628 C 0.2507 0.6487 0.2273 0.6954 0.221 0.7089 C 0.2147 0.7224 0.2255 0.7026 0.221 0.7089 C 0.2165 0.7152 0.2031 0.7341 0.1941 0.7466 C 0.1851 0.7592 0.1761 0.7727 0.1671 0.7844 C 0.1581 0.796 0.1545 0.8014 0.1402 0.8167 C 0.1258 0.832 0.0907 0.8661 0.0809 0.876 C 0.071 0.8859 0.0809 0.876 0.0809 0.876 C 0.0809 0.876 0.0916 0.8679 0.0809 0.876 C 0.0701 0.8841 0.0332 0.9137 0.0162 0.9245 C -0.0009 0.9353 -0.0099 0.9353 -0.0216 0.9407 C -0.0332 0.9461 -0.0485 0.9542 -0.0539 0.9569 C -0.0593 0.9596 -0.0476 0.9551 -0.0539 0.9569 C -0.0602 0.9587 -0.0782 0.965 -0.0916 0.9677 C -0.1051 0.9704 -0.1213 0.9712 -0.1348 0.973 C -0.1482 0.9748 -0.1527 0.9775 -0.1725 0.9784 C -0.1923 0.9793 -0.2399 0.9784 -0.2534 0.9784 C -0.2668 0.9784 -0.2462 0.9793 -0.2534 0.9784 C -0.2606 0.9775 -0.2758 0.9766 -0.2965 0.973 C -0.3172 0.9695 -0.3639 0.9596 -0.3774 0.9569 C -0.3908 0.9542 -0.3702 0.9587 -0.3774 0.9569 C -0.3845 0.9551 -0.407 0.9506 -0.4205 0.9461 C -0.434 0.9416 -0.4456 0.9353 -0.4582 0.9299 C -0.4708 0.9245 -0.4834 0.9191 -0.496 0.9137 C -0.5085 0.9084 -0.5274 0.9003 -0.5337 0.8976 C -0.54 0.8949 -0.5274 0.9021 -0.5337 0.8976 C -0.54 0.8931 -0.5597 0.8787 -0.5714 0.8706 C -0.5831 0.8625 -0.593 0.858 -0.6038 0.8491 C -0.6146 0.8401 -0.6253 0.8266 -0.6361 0.8167 C -0.6469 0.8068 -0.6577 0.7996 -0.6685 0.7898 C -0.6792 0.7799 -0.69 0.7682 -0.7008 0.7574 C -0.7116 0.7466 -0.7188 0.7421 -0.7332 0.7251 C -0.7475 0.708 -0.7781 0.6667 -0.7871 0.655 C -0.796 0.6433 -0.7835 0.6604 -0.7871 0.655 C -0.7907 0.6496 -0.8014 0.6343 -0.8086 0.6226 C -0.8158 0.611 -0.8239 0.5966 -0.8302 0.5849 C -0.8365 0.5732 -0.841 0.5642 -0.8464 0.5526 C -0.8518 0.5409 -0.8571 0.5265 -0.8625 0.5148 C -0.8679 0.5031 -0.8742 0.4942 -0.8787 0.4825 C -0.8832 0.4708 -0.8877 0.451 -0.8895 0.4447 C -0.8913 0.4385 -0.8877 0.451 -0.8895 0.4447 C -0.8913 0.4385 -0.8976 0.4196 -0.9003 0.407 C -0.903 0.3944 -0.9039 0.3819 -0.9057 0.3693 C -0.9075 0.3567 -0.9093 0.3432 -0.9111 0.3315 C -0.9128 0.3199 -0.9146 0.3172 -0.9164 0.2992 C -0.9182 0.2812 -0.9209 0.2363 -0.9218 0.2237 C -0.9227 0.2111 -0.9227 0.23 -0.9218 0.2237 C -0.9209 0.2174 -0.9173 0.1977 -0.9164 0.186 C -0.9155 0.1743 -0.9173 0.1653 -0.9164 0.1536 C -0.9155 0.142 -0.9137 0.1276 -0.9111 0.1159 C -0.9084 0.1042 -0.9021 0.0889 -0.9003 0.0836 C -0.8985 0.0782 -0.9021 0.0889 -0.9003 0.0836 C -0.8985 0.0782 -0.8967 0.0656 -0.8895 0.0512 C -0.8823 0.0368 -0.8661 0.0099 -0.8571 -0.0027 C -0.8482 -0.0153 -0.8392 -0.0207 -0.8356 -0.0243 C -0.832 -0.0279 -0.8392 -0.0207 -0.8356 -0.0243 C -0.832 -0.0279 -0.8221 -0.0395 -0.814 -0.0458 C -0.8059 -0.0521 -0.8005 -0.0557 -0.7871 -0.062 C -0.7736 -0.0683 -0.7421 -0.08 -0.7332 -0.0836 C -0.7242 -0.0872 -0.7385 -0.0827 -0.7332 -0.0836 C -0.7278 -0.0845 -0.717 -0.0881 -0.7008 -0.0889 C -0.6846 -0.0898 -0.6469 -0.0889 -0.6361 -0.0889 C -0.6253 -0.0889 -0.6415 -0.0907 -0.6361 -0.0889 C -0.6307 -0.0872 -0.6155 -0.0818 -0.6038 -0.0782 C -0.5921 -0.0746 -0.5777 -0.071 -0.566 -0.0674 C -0.5544 -0.0638 -0.5445 -0.062 -0.5337 -0.0566 C -0.5229 -0.0512 -0.513 -0.0431 -0.5013 -0.035 C -0.4897 -0.027 -0.4699 -0.0126 -0.4636 -0.0081 C -0.4573 -0.0036 -0.4744 -0.018 -0.4636 -0.0081 C -0.4528 0.0018 -0.4097 0.0413 -0.3989 0.0512 C -0.3881 0.0611 -0.4106 0.0395 -0.3989 0.0512 C -0.3872 0.0629 -0.3405 0.1096 -0.3288 0.1213 C -0.3172 0.133 -0.3342 0.115 -0.3288 0.1213 C -0.3235 0.1276 -0.3073 0.1456 -0.2965 0.159 C -0.2857 0.1725 -0.2749 0.1878 -0.2642 0.2022 C -0.2534 0.2165 -0.2417 0.2318 -0.2318 0.2453 C -0.2219 0.2588 -0.2147 0.2704 -0.2049 0.283 C -0.195 0.2956 -0.1833 0.3082 -0.1725 0.3208 C -0.1617 0.3333 -0.1572 0.3414 -0.1402 0.3585 C -0.1231 0.3756 -0.0818 0.4124 -0.0701 0.4232 C -0.0584 0.434 -0.0701 0.4232 -0.0701 0.4232 C -0.0701 0.4232 -0.0755 0.4196 -0.0701 0.4232 C -0.0647 0.4268 -0.0557 0.434 -0.0377 0.4447 C -0.0198 0.4555 0.0252 0.4807 0.0377 0.4879 C 0.0503 0.4951 0.0305 0.4861 0.0377 0.4879 C 0.0449 0.4897 0.0656 0.4951 0.0809 0.4987 C 0.0961 0.5022 0.1132 0.5058 0.1294 0.5094 C 0.1456 0.513 0.1617 0.5175 0.1779 0.5202 C 0.1941 0.5229 0.2102 0.5247 0.2264 0.5256 C 0.2426 0.5265 0.2588 0.5265 0.2749 0.5256 C 0.2911 0.5247 0.3064 0.5229 0.3234 0.5202 C 0.3405 0.5175 0.3594 0.513 0.3774 0.5094 C 0.3953 0.5058 0.4142 0.5031 0.4313 0.4987 C 0.4483 0.4942 0.4798 0.4825 0.4798 0.4825 ZM 0.372 -0.5795 C 0.372 -0.5795 0.4052 -0.54 0.4205 -0.5202 C 0.4358 -0.5004 0.451 -0.4816 0.4636 -0.4609 C 0.4762 -0.4403 0.4861 -0.4178 0.496 -0.3962 C 0.5058 -0.3747 0.5148 -0.354 0.5229 -0.3315 C 0.531 -0.3091 0.54 -0.2803 0.5445 -0.2615 C 0.549 -0.2426 0.5472 -0.2453 0.5499 -0.2183 C 0.5526 -0.1914 0.5597 -0.1267 0.5606 -0.0997 C 0.5615 -0.0728 0.5597 -0.0782 0.5553 -0.0566 C 0.5508 -0.035 0.5427 0.0018 0.5337 0.0296 C 0.5247 0.0575 0.5103 0.0907 0.5013 0.1105 C 0.4924 0.1303 0.4942 0.1294 0.4798 0.1482 C 0.4654 0.1671 0.4456 0.1959 0.4151 0.2237 C 0.3845 0.2516 0.3163 0.3001 0.2965 0.3154 C 0.2767 0.3306 0.319 0.3055 0.2965 0.3154 C 0.274 0.3252 0.1995 0.3603 0.1617 0.3747 C 0.124 0.389 0.0934 0.3953 0.0701 0.4016 C 0.0467 0.4079 0.0521 0.4097 0.0216 0.4124 C -0.009 0.4151 -0.0755 0.4178 -0.1132 0.4178 C -0.1509 0.4178 -0.1752 0.416 -0.2049 0.4124 C -0.2345 0.4088 -0.2695 0.4007 -0.2911 0.3962 C -0.3127 0.3917 -0.3127 0.3917 -0.3342 0.3854 C -0.3558 0.3792 -0.3935 0.3675 -0.4205 0.3585 C -0.4474 0.3495 -0.4726 0.3396 -0.496 0.3315 C -0.5193 0.3235 -0.5409 0.3163 -0.5606 0.31 C -0.5804 0.3037 -0.5975 0.2992 -0.6146 0.2938 C -0.6316 0.2884 -0.6514 0.2821 -0.6631 0.2776 C -0.6748 0.2731 -0.6757 0.2704 -0.6846 0.2668 C -0.6936 0.2633 -0.708 0.2606 -0.717 0.2561 C -0.726 0.2516 -0.7332 0.2435 -0.7385 0.2399 C -0.7439 0.2363 -0.7475 0.2354 -0.7493 0.2345 C -0.7511 0.2336 -0.7502 0.2345 -0.7493 0.2345 C -0.7484 0.2345 -0.7457 0.2345 -0.7439 0.2345 C -0.7421 0.2345 -0.7412 0.2327 -0.7385 0.2345 C -0.7358 0.2363 -0.7314 0.2426 -0.7278 0.2453 C -0.7242 0.248 -0.7197 0.2489 -0.717 0.2507 C -0.7143 0.2525 -0.7161 0.2525 -0.7116 0.2561 C -0.7071 0.2597 -0.6999 0.2668 -0.69 0.2722 C -0.6801 0.2776 -0.6667 0.2803 -0.6523 0.2884 C -0.6379 0.2965 -0.6226 0.3091 -0.6038 0.3208 C -0.5849 0.3324 -0.5624 0.345 -0.5391 0.3585 C -0.5157 0.372 -0.4762 0.3944 -0.4636 0.4016 C -0.451 0.4088 -0.4843 0.3926 -0.4636 0.4016 C -0.4429 0.4106 -0.3756 0.4403 -0.3396 0.4555 C -0.3037 0.4708 -0.2794 0.4825 -0.248 0.4933 C -0.2165 0.504 -0.1842 0.5112 -0.1509 0.5202 C -0.1177 0.5292 -0.0836 0.5373 -0.0485 0.5472 C -0.0135 0.5571 0.0234 0.5705 0.0593 0.5795 C 0.0952 0.5885 0.1402 0.5966 0.1671 0.6011 C 0.1941 0.6056 0.1941 0.6029 0.221 0.6065 C 0.248 0.6101 0.2947 0.619 0.3288 0.6226 C 0.363 0.6262 0.3935 0.628 0.4259 0.628 C 0.4582 0.628 0.4933 0.6253 0.5229 0.6226 C 0.5526 0.6199 0.5768 0.6173 0.6038 0.6119 C 0.6307 0.6065 0.6658 0.5966 0.6846 0.5903 C 0.7035 0.584 0.7062 0.5804 0.717 0.5741 C 0.7278 0.5678 0.7314 0.5678 0.7493 0.5526 C 0.7673 0.5373 0.8059 0.504 0.8248 0.4825 C 0.8437 0.4609 0.8535 0.4385 0.8625 0.4232 C 0.8715 0.4079 0.8715 0.4151 0.8787 0.3908 C 0.8859 0.3666 0.9003 0.3028 0.9057 0.2776 C 0.9111 0.2525 0.9111 0.2659 0.9111 0.2399 C 0.9111 0.2138 0.9102 0.1545 0.9057 0.1213 C 0.9012 0.0881 0.8895 0.0611 0.8841 0.0404 C 0.8787 0.0198 0.8814 0.018 0.8733 -0.0027 C 0.8652 -0.0234 0.8491 -0.0566 0.8356 -0.0836 C 0.8221 -0.1105 0.8077 -0.1384 0.7925 -0.1644 C 0.7772 -0.1905 0.7565 -0.221 0.7439 -0.2399 C 0.7314 -0.2588 0.7367 -0.2534 0.717 -0.2776 C 0.6972 -0.3019 0.646 -0.3612 0.6253 -0.3854 C 0.6047 -0.4097 0.6092 -0.407 0.593 -0.4232 C 0.5768 -0.4394 0.5508 -0.4636 0.5283 -0.4825 C 0.5058 -0.5013 0.4825 -0.5184 0.4582 -0.5364 C 0.434 -0.5544 0.4079 -0.5741 0.3827 -0.5903 C 0.3576 -0.6065 0.3333 -0.6208 0.3073 -0.6334 C 0.2812 -0.646 0.2471 -0.6577 0.2264 -0.6658 C 0.2058 -0.6739 0.2058 -0.6757 0.1833 -0.6819 C 0.1608 -0.6882 0.1141 -0.6981 0.0916 -0.7035 C 0.0692 -0.7089 0.0782 -0.7098 0.0485 -0.7143 C 0.0189 -0.7188 -0.0503 -0.7269 -0.0863 -0.7305 C -0.1222 -0.7341 -0.1393 -0.7358 -0.1671 -0.7358 C -0.195 -0.7358 -0.2255 -0.7332 -0.2534 -0.7305 C -0.2812 -0.7278 -0.3136 -0.7233 -0.3342 -0.7197 C -0.3549 -0.7161 -0.3567 -0.7152 -0.3774 -0.7089 C -0.398 -0.7026 -0.4331 -0.6927 -0.4582 -0.6819 C -0.4834 -0.6712 -0.5049 -0.6595 -0.5283 -0.6442 C -0.5517 -0.6289 -0.5777 -0.6083 -0.5984 -0.5903 C -0.619 -0.5723 -0.6361 -0.5562 -0.6523 -0.5364 C -0.6685 -0.5166 -0.6846 -0.4879 -0.6954 -0.4717 C -0.7062 -0.4555 -0.7089 -0.4555 -0.717 -0.4394 C -0.7251 -0.4232 -0.7358 -0.3971 -0.7439 -0.3747 C -0.752 -0.3522 -0.761 -0.3288 -0.7655 -0.3046 C -0.77 -0.2803 -0.7691 -0.2471 -0.7709 -0.2291 C -0.7727 -0.2111 -0.7772 -0.221 -0.7763 -0.1968 C -0.7754 -0.1725 -0.7691 -0.115 -0.7655 -0.0836 C -0.7619 -0.0521 -0.7601 -0.0341 -0.7547 -0.0081 C -0.7493 0.018 -0.7403 0.0449 -0.7332 0.0728 C -0.726 0.1006 -0.7179 0.1375 -0.7116 0.159 C -0.7053 0.1806 -0.7035 0.1797 -0.6954 0.2022 C -0.6873 0.2246 -0.6739 0.2642 -0.6631 0.2938 C -0.6523 0.3235 -0.6415 0.3522 -0.6307 0.3801 C -0.6199 0.4079 -0.6092 0.4331 -0.5984 0.4609 C -0.5876 0.4888 -0.5768 0.5202 -0.566 0.5472 C -0.5553 0.5741 -0.5463 0.5984 -0.5337 0.6226 C -0.5211 0.6469 -0.5013 0.6765 -0.4906 0.6927 C -0.4798 0.7089 -0.4798 0.7053 -0.469 0.7197 C -0.4582 0.7341 -0.4412 0.7601 -0.4259 0.779 C -0.4106 0.7978 -0.3944 0.8167 -0.3774 0.8329 C -0.3603 0.8491 -0.3423 0.8616 -0.3235 0.876 C -0.3046 0.8904 -0.2848 0.9066 -0.2642 0.9191 C -0.2435 0.9317 -0.2165 0.9443 -0.1995 0.9515 C -0.1824 0.9587 -0.1779 0.9569 -0.1617 0.9623 C -0.1456 0.9677 -0.1231 0.9784 -0.1024 0.9838 C -0.0818 0.9892 -0.0593 0.9919 -0.0377 0.9946 C -0.0162 0.9973 0.0045 1 0.027 1 C 0.0494 1 0.08 0.9964 0.097 0.9946 C 0.1141 0.9928 0.1087 0.9946 0.1294 0.9892 C 0.15 0.9838 0.1959 0.973 0.221 0.9623 C 0.2462 0.9515 0.265 0.9335 0.2803 0.9245 C 0.2956 0.9155 0.2974 0.9191 0.3127 0.9084 C 0.3279 0.8976 0.3531 0.8778 0.372 0.8598 C 0.3908 0.8419 0.4088 0.8212 0.4259 0.8005 C 0.4429 0.7799 0.4591 0.7583 0.4744 0.7358 C 0.4897 0.7134 0.5049 0.69 0.5175 0.6658 C 0.5301 0.6415 0.5427 0.6101 0.5499 0.5903 C 0.5571 0.5705 0.5571 0.5678 0.5606 0.5472 C 0.5642 0.5265 0.5687 0.4951 0.5714 0.4663 C 0.5741 0.4376 0.5768 0.4043 0.5768 0.3747 C 0.5768 0.345 0.5741 0.3109 0.5714 0.2884 C 0.5687 0.2659 0.5696 0.2704 0.5606 0.2399 C 0.5517 0.2093 0.5319 0.142 0.5175 0.1051 C 0.5031 0.0683 0.4906 0.0476 0.4744 0.0189 C 0.4582 -0.0099 0.4349 -0.0458 0.4205 -0.0674 C 0.4061 -0.0889 0.4052 -0.0898 0.3881 -0.1105 C 0.3711 -0.1312 0.3351 -0.1707 0.3181 -0.1914 C 0.301 -0.212 0.3091 -0.2075 0.2857 -0.2345 C 0.2624 -0.2615 0.2075 -0.3208 0.1779 -0.3531 C 0.1482 -0.3854 0.1303 -0.4043 0.1078 -0.4286 C 0.0854 -0.4528 0.0584 -0.4807 0.0431 -0.4987 C 0.0279 -0.5166 0.0296 -0.5193 0.0162 -0.5364 C 0.0027 -0.5535 -0.0216 -0.5786 -0.0377 -0.6011 C -0.0539 -0.6235 -0.0692 -0.6496 -0.0809 -0.6712 C -0.0925 -0.6927 -0.1015 -0.7098 -0.1078 -0.7305 C -0.1141 -0.7511 -0.1177 -0.7754 -0.1186 -0.7951 C -0.1195 -0.8149 -0.1177 -0.832 -0.1132 -0.8491 C -0.1087 -0.8661 -0.1006 -0.8823 -0.0916 -0.8976 C -0.0827 -0.9128 -0.071 -0.929 -0.0593 -0.9407 C -0.0476 -0.9524 -0.0323 -0.9614 -0.0216 -0.9677 C -0.0108 -0.9739 -0.0072 -0.9739 0.0054 -0.9784 C 0.018 -0.9829 0.0368 -0.991 0.0539 -0.9946 C 0.071 -0.9982 0.0881 -0.9991 0.1078 -1 C 0.1276 -1.0009 0.1482 -1.0009 0.1725 -1 C 0.1968 -0.9991 0.2264 -1 0.2534 -0.9946 C 0.2803 -0.9892 0.3136 -0.9748 0.3342 -0.9677 C 0.3549 -0.9605 0.3558 -0.9605 0.3774 -0.9515 C 0.3989 -0.9425 0.4358 -0.929 0.4636 -0.9137 C 0.4915 -0.8985 0.5184 -0.8796 0.5445 -0.8598 C 0.5705 -0.8401 0.5948 -0.8167 0.6199 -0.7951 C 0.6451 -0.7736 0.673 -0.7529 0.6954 -0.7305 C 0.7179 -0.708 0.7367 -0.6846 0.7547 -0.6604 C 0.7727 -0.6361 0.7916 -0.6038 0.8032 -0.5849 C 0.8149 -0.566 0.8122 -0.5723 0.8248 -0.5472 C 0.8374 -0.522 0.8679 -0.4591 0.8787 -0.434 C 0.8895 -0.4088 0.8841 -0.416 0.8895 -0.3962 C 0.8949 -0.3765 0.9057 -0.3414 0.9111 -0.3154 C 0.9164 -0.2893 0.9209 -0.2668 0.9218 -0.2399 C 0.9227 -0.2129 0.9182 -0.1743 0.9164 -0.1536 C 0.9146 -0.133 0.9137 -0.1366 0.9111 -0.1159 C 0.9084 -0.0952 0.9066 -0.0593 0.9003 -0.0296 C 0.894 -0 0.8832 0.0332 0.8733 0.062 C 0.8634 0.0907 0.8544 0.115 0.841 0.1429 C 0.8275 0.1707 0.8104 0.2022 0.7925 0.2291 C 0.7745 0.2561 0.7547 0.2794 0.7332 0.3046 C 0.7116 0.3297 0.6891 0.3576 0.6631 0.3801 C 0.637 0.4025 0.6074 0.4223 0.5768 0.4394 C 0.5463 0.4564 0.4798 0.4825 0.4798 0.4825 C 0.4798 0.4825 0.5463 0.4564 0.5768 0.4394 C 0.6074 0.4223 0.637 0.4025 0.6631 0.3801 C 0.6891 0.3576 0.7116 0.3297 0.7332 0.3046 C 0.7547 0.2794 0.7745 0.2561 0.7925 0.2291 C 0.8104 0.2022 0.8275 0.1707 0.841 0.1429 C 0.8544 0.115 0.8634 0.0907 0.8733 0.062 C 0.8832 0.0332 0.894 -0 0.9003 -0.0296 C 0.9066 -0.0593 0.9084 -0.0952 0.9111 -0.1159 C 0.9137 -0.1366 0.9146 -0.133 0.9164 -0.1536 C 0.9182 -0.1743 0.9227 -0.2129 0.9218 -0.2399 C 0.9209 -0.2668 0.9164 -0.2893 0.9111 -0.3154 C 0.9057 -0.3414 0.8949 -0.3765 0.8895 -0.3962 C 0.8841 -0.416 0.8895 -0.4088 0.8787 -0.434 C 0.8679 -0.4591 0.8374 -0.522 0.8248 -0.5472 C 0.8122 -0.5723 0.8149 -0.566 0.8032 -0.5849 C 0.7916 -0.6038 0.7727 -0.6361 0.7547 -0.6604 C 0.7367 -0.6846 0.7179 -0.708 0.6954 -0.7305 C 0.673 -0.7529 0.6451 -0.7736 0.6199 -0.7951 C 0.5948 -0.8167 0.5705 -0.8401 0.5445 -0.8598 C 0.5184 -0.8796 0.4915 -0.8985 0.4636 -0.9137 C 0.4358 -0.929 0.3989 -0.9425 0.3774 -0.9515 C 0.3558 -0.9605 0.3549 -0.9605 0.3342 -0.9677 C 0.3136 -0.9748 0.2803 -0.9892 0.2534 -0.9946 C 0.2264 -1 0.1968 -0.9991 0.1725 -1 C 0.1482 -1.0009 0.1276 -1.0009 0.1078 -1 C 0.0881 -0.9991 0.071 -0.9982 0.0539 -0.9946 C 0.0368 -0.991 0.018 -0.9829 0.0054 -0.9784 C -0.0072 -0.9739 -0.0108 -0.9739 -0.0216 -0.9677 C -0.0323 -0.9614 -0.0476 -0.9524 -0.0593 -0.9407 C -0.071 -0.929 -0.0827 -0.9128 -0.0916 -0.8976 C -0.1006 -0.8823 -0.1087 -0.8661 -0.1132 -0.8491 C -0.1177 -0.832 -0.1195 -0.8149 -0.1186 -0.7951 C -0.1177 -0.7754 -0.1141 -0.7511 -0.1078 -0.7305 C -0.1015 -0.7098 -0.0925 -0.6927 -0.0809 -0.6712 C -0.0692 -0.6496 -0.0539 -0.6235 -0.0377 -0.6011 C -0.0216 -0.5786 0.0027 -0.5535 0.0162 -0.5364 C 0.0296 -0.5193 0.0279 -0.5166 0.0431 -0.4987 C 0.0584 -0.4807 0.0854 -0.4528 0.1078 -0.4286 C 0.1303 -0.4043 0.1482 -0.3854 0.1779 -0.3531 C 0.2075 -0.3208 0.2624 -0.2615 0.2857 -0.2345 C 0.3091 -0.2075 0.301 -0.212 0.3181 -0.1914 C 0.3351 -0.1707 0.3711 -0.1312 0.3881 -0.1105 C 0.4052 -0.0898 0.4061 -0.0889 0.4205 -0.0674 C 0.4349 -0.0458 0.4582 -0.0099 0.4744 0.0189 C 0.4906 0.0476 0.5031 0.0683 0.5175 0.1051 C 0.5319 0.142 0.5517 0.2093 0.5606 0.2399 C 0.5696 0.2704 0.5687 0.2659 0.5714 0.2884 C 0.5741 0.3109 0.5768 0.345 0.5768 0.3747 C 0.5768 0.4043 0.5741 0.4376 0.5714 0.4663 C 0.5687 0.4951 0.5642 0.5265 0.5606 0.5472 C 0.5571 0.5678 0.5571 0.5705 0.5499 0.5903 C 0.5427 0.6101 0.5301 0.6415 0.5175 0.6658 C 0.5049 0.69 0.4897 0.7134 0.4744 0.7358 C 0.4591 0.7583 0.4429 0.7799 0.4259 0.8005 C 0.4088 0.8212 0.3908 0.8419 0.372 0.8598 C 0.3531 0.8778 0.3279 0.8976 0.3127 0.9084 C 0.2974 0.9191 0.2956 0.9155 0.2803 0.9245 C 0.265 0.9335 0.2462 0.9515 0.221 0.9623 C 0.1959 0.973 0.15 0.9838 0.1294 0.9892 C 0.1087 0.9946 0.1141 0.9928 0.097 0.9946 C 0.08 0.9964 0.0494 1 0.027 1 C 0.0045 1 -0.0162 0.9973 -0.0377 0.9946 C -0.0593 0.9919 -0.0818 0.9892 -0.1024 0.9838 C -0.1231 0.9784 -0.1456 0.9677 -0.1617 0.9623 C -0.1779 0.9569 -0.1824 0.9587 -0.1995 0.9515 C -0.2165 0.9443 -0.2435 0.9317 -0.2642 0.9191 C -0.2848 0.9066 -0.3046 0.8904 -0.3235 0.876 C -0.3423 0.8616 -0.3603 0.8491 -0.3774 0.8329 C -0.3944 0.8167 -0.4106 0.7978 -0.4259 0.779 C -0.4412 0.7601 -0.4582 0.7341 -0.469 0.7197 C -0.4798 0.7053 -0.4798 0.7089 -0.4906 0.6927 C -0.5013 0.6765 -0.5211 0.6469 -0.5337 0.6226 C -0.5463 0.5984 -0.5553 0.5741 -0.566 0.5472 C -0.5768 0.5202 -0.5876 0.4888 -0.5984 0.4609 C -0.6092 0.4331 -0.6199 0.4079 -0.6307 0.3801 C -0.6415 0.3522 -0.6523 0.3235 -0.6631 0.2938 C -0.6739 0.2642 -0.6873 0.2246 -0.6954 0.2022 C -0.7035 0.1797 -0.7053 0.1806 -0.7116 0.159 C -0.7179 0.1375 -0.726 0.1006 -0.7332 0.0728 C -0.7403 0.0449 -0.7493 0.018 -0.7547 -0.0081 C -0.7601 -0.0341 -0.7619 -0.0521 -0.7655 -0.0836 C -0.7691 -0.115 -0.7754 -0.1725 -0.7763 -0.1968 C -0.7772 -0.221 -0.7727 -0.2111 -0.7709 -0.2291 C -0.7691 -0.2471 -0.77 -0.2803 -0.7655 -0.3046 C -0.761 -0.3288 -0.752 -0.3522 -0.7439 -0.3747 C -0.7358 -0.3971 -0.7251 -0.4232 -0.717 -0.4394 C -0.7089 -0.4555 -0.7062 -0.4555 -0.6954 -0.4717 C -0.6846 -0.4879 -0.6685 -0.5166 -0.6523 -0.5364 C -0.6361 -0.5562 -0.619 -0.5723 -0.5984 -0.5903 C -0.5777 -0.6083 -0.5517 -0.6289 -0.5283 -0.6442 C -0.5049 -0.6595 -0.4834 -0.6712 -0.4582 -0.6819 C -0.4331 -0.6927 -0.398 -0.7026 -0.3774 -0.7089 C -0.3567 -0.7152 -0.3549 -0.7161 -0.3342 -0.7197 C -0.3136 -0.7233 -0.2812 -0.7278 -0.2534 -0.7305 C -0.2255 -0.7332 -0.195 -0.7358 -0.1671 -0.7358 C -0.1393 -0.7358 -0.1222 -0.7341 -0.0863 -0.7305 C -0.0503 -0.7269 0.0189 -0.7188 0.0485 -0.7143 C 0.0782 -0.7098 0.0692 -0.7089 0.0916 -0.7035 C 0.1141 -0.6981 0.1608 -0.6882 0.1833 -0.6819 C 0.2058 -0.6757 0.2058 -0.6739 0.2264 -0.6658 C 0.2471 -0.6577 0.2812 -0.646 0.3073 -0.6334 C 0.3333 -0.6208 0.3576 -0.6065 0.3827 -0.5903 C 0.4079 -0.5741 0.434 -0.5544 0.4582 -0.5364 C 0.4825 -0.5184 0.5058 -0.5013 0.5283 -0.4825 C 0.5508 -0.4636 0.5768 -0.4394 0.593 -0.4232 C 0.6092 -0.407 0.6047 -0.4097 0.6253 -0.3854 C 0.646 -0.3612 0.6972 -0.3019 0.717 -0.2776 C 0.7367 -0.2534 0.7314 -0.2588 0.7439 -0.2399 C 0.7565 -0.221 0.7772 -0.1905 0.7925 -0.1644 C 0.8077 -0.1384 0.8221 -0.1105 0.8356 -0.0836 C 0.8491 -0.0566 0.8652 -0.0234 0.8733 -0.0027 C 0.8814 0.018 0.8787 0.0198 0.8841 0.0404 C 0.8895 0.0611 0.9012 0.0881 0.9057 0.1213 C 0.9102 0.1545 0.9111 0.2138 0.9111 0.2399 C 0.9111 0.2659 0.9111 0.2525 0.9057 0.2776 C 0.9003 0.3028 0.8859 0.3666 0.8787 0.3908 C 0.8715 0.4151 0.8715 0.4079 0.8625 0.4232 C 0.8535 0.4385 0.8437 0.4609 0.8248 0.4825 C 0.8059 0.504 0.7673 0.5373 0.7493 0.5526 C 0.7314 0.5678 0.7278 0.5678 0.717 0.5741 C 0.7062 0.5804 0.7035 0.584 0.6846 0.5903 C 0.6658 0.5966 0.6307 0.6065 0.6038 0.6119 C 0.5768 0.6173 0.5526 0.6199 0.5229 0.6226 C 0.4933 0.6253 0.4582 0.628 0.4259 0.628 C 0.3935 0.628 0.363 0.6262 0.3288 0.6226 C 0.2947 0.619 0.248 0.6101 0.221 0.6065 C 0.1941 0.6029 0.1941 0.6056 0.1671 0.6011 C 0.1402 0.5966 0.0952 0.5885 0.0593 0.5795 C 0.0234 0.5705 -0.0135 0.5571 -0.0485 0.5472 C -0.0836 0.5373 -0.1177 0.5292 -0.1509 0.5202 C -0.1842 0.5112 -0.2165 0.504 -0.248 0.4933 C -0.2794 0.4825 -0.3037 0.4708 -0.3396 0.4555 C -0.3756 0.4403 -0.4429 0.4106 -0.4636 0.4016 C -0.4843 0.3926 -0.451 0.4088 -0.4636 0.4016 C -0.4762 0.3944 -0.5157 0.372 -0.5391 0.3585 C -0.5624 0.345 -0.5849 0.3324 -0.6038 0.3208 C -0.6226 0.3091 -0.6379 0.2965 -0.6523 0.2884 C -0.6667 0.2803 -0.6801 0.2776 -0.69 0.2722 C -0.6999 0.2668 -0.7071 0.2597 -0.7116 0.2561 C -0.7161 0.2525 -0.7143 0.2525 -0.717 0.2507 C -0.7197 0.2489 -0.7242 0.248 -0.7278 0.2453 C -0.7314 0.2426 -0.7358 0.2363 -0.7385 0.2345 C -0.7412 0.2327 -0.7421 0.2345 -0.7439 0.2345 C -0.7457 0.2345 -0.7484 0.2345 -0.7493 0.2345 C -0.7502 0.2345 -0.7511 0.2336 -0.7493 0.2345 C -0.7475 0.2354 -0.7439 0.2363 -0.7385 0.2399 C -0.7332 0.2435 -0.726 0.2516 -0.717 0.2561 C -0.708 0.2606 -0.6936 0.2633 -0.6846 0.2668 C -0.6757 0.2704 -0.6748 0.2731 -0.6631 0.2776 C -0.6514 0.2821 -0.6316 0.2884 -0.6146 0.2938 C -0.5975 0.2992 -0.5804 0.3037 -0.5606 0.31 C -0.5409 0.3163 -0.5193 0.3235 -0.496 0.3315 C -0.4726 0.3396 -0.4474 0.3495 -0.4205 0.3585 C -0.3935 0.3675 -0.3558 0.3792 -0.3342 0.3854 C -0.3127 0.3917 -0.3127 0.3917 -0.2911 0.3962 C -0.2695 0.4007 -0.2345 0.4088 -0.2049 0.4124 C -0.1752 0.416 -0.1509 0.4178 -0.1132 0.4178 C -0.0755 0.4178 -0.009 0.4151 0.0216 0.4124 C 0.0521 0.4097 0.0467 0.4079 0.0701 0.4016 C 0.0934 0.3953 0.124 0.389 0.1617 0.3747 C 0.1995 0.3603 0.274 0.3252 0.2965 0.3154 C 0.319 0.3055 0.2767 0.3306 0.2965 0.3154 C 0.3163 0.3001 0.3845 0.2516 0.4151 0.2237 C 0.4456 0.1959 0.4654 0.1671 0.4798 0.1482 C 0.4942 0.1294 0.4924 0.1303 0.5013 0.1105 C 0.5103 0.0907 0.5247 0.0575 0.5337 0.0296 C 0.5427 0.0018 0.5508 -0.035 0.5553 -0.0566 C 0.5597 -0.0782 0.5615 -0.0728 0.5606 -0.0997 C 0.5597 -0.1267 0.5526 -0.1914 0.5499 -0.2183 C 0.5472 -0.2453 0.549 -0.2426 0.5445 -0.2615 C 0.54 -0.2803 0.531 -0.3091 0.5229 -0.3315 C 0.5148 -0.354 0.5058 -0.3747 0.496 -0.3962 C 0.4861 -0.4178 0.4762 -0.4403 0.4636 -0.4609 C 0.451 -0.4816 0.4358 -0.5004 0.4205 -0.5202 C 0.4052 -0.54 0.372 -0.5795 0.372 -0.5795 Z"
        fill="none" stroke="black"/>
</svg>
