<?xml version="1.0" encoding="UTF-8"?>

<svg xmlns="http://www.w3.org/2000/svg" viewBox="-1 -1 2 2" data-name="Rec_170427"
     data-beats="4" data-seam-join="407" data-fade="64" data-direction="fwd"
     data-end-action="loop" data-ppqn="128">
  <path d="M 0.3097 0.8913 C 0.3097 0.8913 0.2868 0.8944 0.2624 0.896 C 0.238 0.8976 0.1875 0.8999 0.1631 0.9007 C 0.1387 0.9015 0.1324 0.9007 0.1158 0.9007 C 0.0993 0.9007 0.089 0.9023 0.0638 0.9007 C 0.0386 0.8991 -0.0189 0.8928 -0.0355 0.8913 C -0.052 0.8897 -0.011 0.8952 -0.0355 0.8913 C -0.0599 0.8873 -0.1497 0.8731 -0.182 0.8676 C -0.2143 0.8621 -0.2136 0.8621 -0.2293 0.8582 C -0.2451 0.8542 -0.2608 0.8487 -0.2766 0.844 C -0.2924 0.8392 -0.301 0.8385 -0.3239 0.8298 C -0.3467 0.8211 -0.3916 0.8014 -0.4137 0.792 C -0.4358 0.7825 -0.4358 0.7825 -0.4563 0.773 C -0.4768 0.7636 -0.5169 0.7455 -0.5366 0.7352 C -0.5563 0.725 -0.5626 0.7195 -0.5745 0.7116 C -0.5863 0.7037 -0.591 0.699 -0.6076 0.6879 C -0.6241 0.6769 -0.658 0.6564 -0.6738 0.6454 C -0.6895 0.6344 -0.6927 0.6296 -0.7021 0.6217 C -0.7116 0.6139 -0.721 0.606 -0.7305 0.5981 C -0.74 0.5902 -0.7447 0.5871 -0.7589 0.5745 C -0.773 0.5619 -0.803 0.5359 -0.8156 0.5225 C -0.8282 0.5091 -0.8235 0.5091 -0.8345 0.4941 C -0.8455 0.4791 -0.8708 0.4476 -0.8818 0.4326 C -0.8928 0.4177 -0.8944 0.4145 -0.9007 0.4043 C -0.907 0.394 -0.9117 0.3869 -0.9196 0.3712 C -0.9275 0.3554 -0.9409 0.3255 -0.948 0.3097 C -0.9551 0.2939 -0.9574 0.2876 -0.9622 0.2766 C -0.9669 0.2656 -0.9724 0.2545 -0.9764 0.2435 C -0.9803 0.2325 -0.9827 0.2262 -0.9858 0.2104 C -0.989 0.1946 -0.9929 0.1639 -0.9953 0.1489 C -0.9976 0.134 -0.9992 0.1355 -1 0.1206 C -1.0008 0.1056 -1 0.0749 -1 0.0591 C -1 0.0433 -1 0.0362 -1 0.026 C -1 0.0158 -1.0016 0.0118 -1 -0.0024 C -0.9984 -0.0165 -0.9929 -0.0449 -0.9905 -0.0591 C -0.9882 -0.0733 -0.9882 -0.078 -0.9858 -0.0875 C -0.9835 -0.0969 -0.9795 -0.1064 -0.9764 -0.1158 C -0.9732 -0.1253 -0.9732 -0.1308 -0.9669 -0.1442 C -0.9606 -0.1576 -0.9456 -0.1836 -0.9385 -0.1962 C -0.9314 -0.2088 -0.933 -0.2072 -0.9243 -0.2199 C -0.9157 -0.2325 -0.896 -0.2593 -0.8865 -0.2719 C -0.8771 -0.2845 -0.8739 -0.2884 -0.8676 -0.2955 C -0.8613 -0.3026 -0.8589 -0.3042 -0.8487 -0.3144 C -0.8385 -0.3247 -0.8172 -0.3475 -0.8061 -0.357 C -0.7951 -0.3664 -0.7896 -0.3656 -0.7825 -0.3712 C -0.7754 -0.3767 -0.7707 -0.3853 -0.7636 -0.3901 C -0.7565 -0.3948 -0.7518 -0.394 -0.74 -0.3995 C -0.7281 -0.405 -0.7045 -0.4177 -0.6927 -0.4232 C -0.6809 -0.4287 -0.6816 -0.4295 -0.669 -0.4326 C -0.6564 -0.4358 -0.6296 -0.4405 -0.617 -0.4421 C -0.6044 -0.4437 -0.602 -0.4421 -0.5934 -0.4421 C -0.5847 -0.4421 -0.5784 -0.4421 -0.565 -0.4421 C -0.5516 -0.4421 -0.5264 -0.4421 -0.513 -0.4421 C -0.4996 -0.4421 -0.4933 -0.4429 -0.4846 -0.4421 C -0.476 -0.4413 -0.4689 -0.4389 -0.461 -0.4374 C -0.4531 -0.4358 -0.4507 -0.4358 -0.4374 -0.4326 C -0.424 -0.4295 -0.3948 -0.4224 -0.3806 -0.4184 C -0.3664 -0.4145 -0.3656 -0.4145 -0.3522 -0.409 C -0.3388 -0.4035 -0.3136 -0.3909 -0.3002 -0.3853 C -0.2868 -0.3798 -0.2813 -0.3798 -0.2719 -0.3759 C -0.2624 -0.3719 -0.2569 -0.3688 -0.2435 -0.3617 C -0.2301 -0.3546 -0.2049 -0.3412 -0.1915 -0.3333 C -0.1781 -0.3255 -0.1718 -0.3199 -0.1631 -0.3144 C -0.1545 -0.3089 -0.1474 -0.305 -0.1395 -0.3002 C -0.1316 -0.2955 -0.1277 -0.2947 -0.1158 -0.2861 C -0.104 -0.2774 -0.0796 -0.2577 -0.0686 -0.2482 C -0.0575 -0.2388 -0.0591 -0.2396 -0.0496 -0.2293 C -0.0402 -0.2191 -0.0205 -0.1978 -0.0118 -0.1868 C -0.0032 -0.1757 -0.0024 -0.171 0.0024 -0.1631 C 0.0071 -0.1552 0.0118 -0.1466 0.0165 -0.1395 C 0.0213 -0.1324 0.0244 -0.1324 0.0307 -0.1206 C 0.037 -0.1087 0.0489 -0.082 0.0544 -0.0686 C 0.0599 -0.0552 0.0607 -0.0489 0.0638 -0.0402 C 0.067 -0.0315 0.0686 -0.0292 0.0733 -0.0165 C 0.078 -0.0039 0.0875 0.0221 0.0922 0.0355 C 0.0969 0.0489 0.0993 0.0552 0.1017 0.0638 C 0.104 0.0725 0.1032 0.0741 0.1064 0.0875 C 0.1095 0.1009 0.1174 0.1308 0.1206 0.1442 C 0.1237 0.1576 0.1245 0.1592 0.1253 0.1678 C 0.1261 0.1765 0.1245 0.1828 0.1253 0.1962 C 0.1261 0.2096 0.1284 0.2348 0.13 0.2482 C 0.1316 0.2616 0.1348 0.2679 0.1348 0.2766 C 0.1348 0.2853 0.1316 0.2876 0.13 0.3002 C 0.1284 0.3128 0.1277 0.3404 0.1253 0.3522 C 0.1229 0.3641 0.119 0.3641 0.1158 0.3712 C 0.1127 0.3783 0.1119 0.3838 0.1064 0.3948 C 0.1009 0.4058 0.089 0.4271 0.0827 0.4374 C 0.0764 0.4476 0.0733 0.45 0.0686 0.4563 C 0.0638 0.4626 0.0623 0.4673 0.0544 0.4752 C 0.0465 0.4831 0.0299 0.4965 0.0213 0.5035 C 0.0126 0.5106 0.0087 0.513 0.0024 0.5177 C -0.0039 0.5225 -0.0055 0.5264 -0.0165 0.5319 C -0.0276 0.5374 -0.052 0.5461 -0.0638 0.5508 C -0.0756 0.5556 -0.0788 0.5571 -0.0875 0.5603 C -0.0961 0.5634 -0.1024 0.5658 -0.1158 0.5697 C -0.1292 0.5737 -0.1545 0.5808 -0.1678 0.5839 C -0.1812 0.5871 -0.1875 0.5871 -0.1962 0.5887 C -0.2049 0.5902 -0.208 0.5918 -0.2199 0.5934 C -0.2317 0.595 -0.2561 0.5965 -0.2671 0.5981 C -0.2782 0.5997 -0.2797 0.602 -0.2861 0.6028 C -0.2924 0.6036 -0.2971 0.6028 -0.305 0.6028 C -0.3128 0.6028 -0.3262 0.6028 -0.3333 0.6028 C -0.3404 0.6028 -0.3436 0.6028 -0.3475 0.6028 C -0.3515 0.6028 -0.3554 0.6028 -0.357 0.6028 C -0.3585 0.6028 -0.3554 0.6036 -0.357 0.6028 C -0.3585 0.602 -0.3649 0.5989 -0.3664 0.5981 C -0.368 0.5973 -0.3664 0.5981 -0.3664 0.5981 C -0.3664 0.5981 -0.3672 0.5997 -0.3664 0.5981 C -0.3656 0.5965 -0.3633 0.5902 -0.3617 0.5887 C -0.3601 0.5871 -0.3585 0.5894 -0.357 0.5887 C -0.3554 0.5879 -0.357 0.5863 -0.3522 0.5839 C -0.3475 0.5816 -0.3349 0.5768 -0.3286 0.5745 C -0.3223 0.5721 -0.3168 0.5705 -0.3144 0.5697 C -0.3121 0.569 -0.3255 0.5729 -0.3144 0.5697 C -0.3034 0.5666 -0.2632 0.5556 -0.2482 0.5508 C -0.2333 0.5461 -0.2333 0.5437 -0.2246 0.5414 C -0.2159 0.539 -0.2057 0.539 -0.1962 0.5366 C -0.1868 0.5343 -0.1828 0.5319 -0.1678 0.5272 C -0.1529 0.5225 -0.1221 0.513 -0.1064 0.5083 C -0.0906 0.5035 -0.0914 0.5043 -0.0733 0.4988 C -0.0552 0.4933 -0.0173 0.4807 0.0024 0.4752 C 0.0221 0.4697 0.0378 0.4673 0.0449 0.4657 C 0.052 0.4641 0.0229 0.4728 0.0449 0.4657 C 0.067 0.4586 0.1466 0.4326 0.1773 0.4232 C 0.208 0.4137 0.2128 0.4137 0.2293 0.409 C 0.2459 0.4043 0.26 0.4003 0.2766 0.3948 C 0.2931 0.3893 0.3113 0.3822 0.3286 0.3759 C 0.3459 0.3696 0.3554 0.368 0.3806 0.357 C 0.4058 0.3459 0.4555 0.3223 0.4799 0.3097 C 0.5043 0.2971 0.5114 0.29 0.5272 0.2813 C 0.5429 0.2727 0.5595 0.2664 0.5745 0.2577 C 0.5894 0.249 0.5965 0.2435 0.617 0.2293 C 0.6375 0.2151 0.6785 0.1868 0.6974 0.1726 C 0.7163 0.1584 0.7155 0.1584 0.7305 0.1442 C 0.7455 0.13 0.773 0.1024 0.7872 0.0875 C 0.8014 0.0725 0.8069 0.0654 0.8156 0.0544 C 0.8243 0.0433 0.829 0.0378 0.8392 0.0213 C 0.8495 0.0047 0.8684 -0.0284 0.8771 -0.0449 C 0.8857 -0.0615 0.8873 -0.0662 0.8913 -0.078 C 0.8952 -0.0898 0.9007 -0.1158 0.9007 -0.1158 C 0.9007 -0.1158 0.8952 -0.0898 0.8913 -0.078 C 0.8873 -0.0662 0.8857 -0.0615 0.8771 -0.0449 C 0.8684 -0.0284 0.8495 0.0047 0.8392 0.0213 C 0.829 0.0378 0.8243 0.0433 0.8156 0.0544 C 0.8069 0.0654 0.8014 0.0725 0.7872 0.0875 C 0.773 0.1024 0.7455 0.13 0.7305 0.1442 C 0.7155 0.1584 0.7163 0.1584 0.6974 0.1726 C 0.6785 0.1868 0.6375 0.2151 0.617 0.2293 C 0.5965 0.2435 0.5894 0.249 0.5745 0.2577 C 0.5595 0.2664 0.5429 0.2727 0.5272 0.2813 C 0.5114 0.29 0.5043 0.2971 0.4799 0.3097 C 0.4555 0.3223 0.4058 0.3459 0.3806 0.357 C 0.3554 0.368 0.3459 0.3696 0.3286 0.3759 C 0.3113 0.3822 0.2931 0.3893 0.2766 0.3948 C 0.26 0.4003 0.2459 0.4043 0.2293 0.409 C 0.2128 0.4137 0.208 0.4137 0.1773 0.4232 C 0.1466 0.4326 0.067 0.4586 0.0449 0.4657 C 0.0229 0.4728 0.052 0.4641 0.0449 0.4657 C 0.0378 0.4673 0.0221 0.4697 0.0024 0.4752 C -0.0173 0.4807 -0.0552 0.4933 -0.0733 0.4988 C -0.0914 0.5043 -0.0906 0.5035 -0.1064 0.5083 C -0.1221 0.513 -0.1529 0.5225 -0.1678 0.5272 C -0.1828 0.5319 -0.1868 0.5343 -0.1962 0.5366 C -0.2057 0.539 -0.2159 0.539 -0.2246 0.5414 C -0.2333 0.5437 -0.2333 0.5461 -0.2482 0.5508 C -0.2632 0.5556 -0.3034 0.5666 -0.3144 0.5697 C -0.3255 0.5729 -0.3121 0.569 -0.3144 0.5697 C -0.3168 0.5705 -0.3223 0.5721 -0.3286 0.5745 C -0.3349 0.5768 -0.3475 0.5816 -0.3522 0.5839 C -0.357 0.5863 -0.3554 0.5879 -0.357 0.5887 C -0.3585 0.5894 -0.3601 0.5871 -0.3617 0.5887 C -0.3633 0.5902 -0.3656 0.5965 -0.3664 0.5981 C -0.3672 0.5997 -0.3664 0.5981 -0.3664 0.5981 C -0.3664 0.5981 -0.368 0.5973 -0.3664 0.5981 C -0.3649 0.5989 -0.3585 0.602 -0.357 0.6028 C -0.3554 0.6036 -0.3585 0.6028 -0.357 0.6028 C -0.3554 0.6028 -0.3515 0.6028 -0.3475 0.6028 C -0.3436 0.6028 -0.3404 0.6028 -0.3333 0.6028 C -0.3262 0.6028 -0.3128 0.6028 -0.305 0.6028 C -0.2971 0.6028 -0.2924 0.6036 -0.2861 0.6028 C -0.2797 0.602 -0.2782 0.5997 -0.2671 0.5981 C -0.2561 0.5965 -0.2317 0.595 -0.2199 0.5934 C -0.208 0.5918 -0.2049 0.5902 -0.1962 0.5887 C -0.1875 0.5871 -0.1812 0.5871 -0.1678 0.5839 C -0.1545 0.5808 -0.1292 0.5737 -0.1158 0.5697 C -0.1024 0.5658 -0.0961 0.5634 -0.0875 0.5603 C -0.0788 0.5571 -0.0756 0.5556 -0.0638 0.5508 C -0.052 0.5461 -0.0276 0.5374 -0.0165 0.5319 C -0.0055 0.5264 -0.0039 0.5225 0.0024 0.5177 C 0.0087 0.513 0.0126 0.5106 0.0213 0.5035 C 0.0299 0.4965 0.0465 0.4831 0.0544 0.4752 C 0.0623 0.4673 0.0638 0.4626 0.0686 0.4563 C 0.0733 0.45 0.0764 0.4476 0.0827 0.4374 C 0.089 0.4271 0.1009 0.4058 0.1064 0.3948 C 0.1119 0.3838 0.1127 0.3783 0.1158 0.3712 C 0.119 0.3641 0.1229 0.3641 0.1253 0.3522 C 0.1277 0.3404 0.1284 0.3128 0.13 0.3002 C 0.1316 0.2876 0.1348 0.2853 0.1348 0.2766 C 0.1348 0.2679 0.1316 0.2616 0.13 0.2482 C 0.1284 0.2348 0.1261 0.2096 0.1253 0.1962 C 0.1245 0.1828 0.1261 0.1765 0.1253 0.1678 C 0.1245 0.1592 0.1237 0.1576 0.1206 0.1442 C 0.1174 0.1308 0.1095 0.1009 0.1064 0.0875 C 0.1032 0.0741 0.104 0.0725 0.1017 0.0638 C 0.0993 0.0552 0.0969 0.0489 0.0922 0.0355 C 0.0875 0.0221 0.078 -0.0039 0.0733 -0.0165 C 0.0686 -0.0292 0.067 -0.0315 0.0638 -0.0402 C 0.0607 -0.0489 0.0599 -0.0552 0.0544 -0.0686 C 0.0489 -0.082 0.037 -0.1087 0.0307 -0.1206 C 0.0244 -0.1324 0.0213 -0.1324 0.0165 -0.1395 C 0.0118 -0.1466 0.0071 -0.1552 0.0024 -0.1631 C -0.0024 -0.171 -0.0032 -0.1757 -0.0118 -0.1868 C -0.0205 -0.1978 -0.0402 -0.2191 -0.0496 -0.2293 C -0.0591 -0.2396 -0.0575 -0.2388 -0.0686 -0.2482 C -0.0796 -0.2577 -0.104 -0.2774 -0.1158 -0.2861 C -0.1277 -0.2947 -0.1316 -0.2955 -0.1395 -0.3002 C -0.1474 -0.305 -0.1545 -0.3089 -0.1631 -0.3144 C -0.1718 -0.3199 -0.1781 -0.3255 -0.1915 -0.3333 C -0.2049 -0.3412 -0.2301 -0.3546 -0.2435 -0.3617 C -0.2569 -0.3688 -0.2624 -0.3719 -0.2719 -0.3759 C -0.2813 -0.3798 -0.2868 -0.3798 -0.3002 -0.3853 C -0.3136 -0.3909 -0.3388 -0.4035 -0.3522 -0.409 C -0.3656 -0.4145 -0.3664 -0.4145 -0.3806 -0.4184 C -0.3948 -0.4224 -0.424 -0.4295 -0.4374 -0.4326 C -0.4507 -0.4358 -0.4531 -0.4358 -0.461 -0.4374 C -0.4689 -0.4389 -0.476 -0.4413 -0.4846 -0.4421 C -0.4933 -0.4429 -0.4996 -0.4421 -0.513 -0.4421 C -0.5264 -0.4421 -0.5516 -0.4421 -0.565 -0.4421 C -0.5784 -0.4421 -0.5847 -0.4421 -0.5934 -0.4421 C -0.602 -0.4421 -0.6044 -0.4437 -0.617 -0.4421 C -0.6296 -0.4405 -0.6564 -0.4358 -0.669 -0.4326 C -0.6816 -0.4295 -0.6809 -0.4287 -0.6927 -0.4232 C -0.7045 -0.4177 -0.7281 -0.405 -0.74 -0.3995 C -0.7518 -0.394 -0.7565 -0.3948 -0.7636 -0.3901 C -0.7707 -0.3853 -0.7754 -0.3767 -0.7825 -0.3712 C -0.7896 -0.3656 -0.7951 -0.3664 -0.8061 -0.357 C -0.8172 -0.3475 -0.8385 -0.3247 -0.8487 -0.3144 C -0.8589 -0.3042 -0.8613 -0.3026 -0.8676 -0.2955 C -0.8739 -0.2884 -0.8771 -0.2845 -0.8865 -0.2719 C -0.896 -0.2593 -0.9157 -0.2325 -0.9243 -0.2199 C -0.933 -0.2072 -0.9314 -0.2088 -0.9385 -0.1962 C -0.9456 -0.1836 -0.9606 -0.1576 -0.9669 -0.1442 C -0.9732 -0.1308 -0.9732 -0.1253 -0.9764 -0.1158 C -0.9795 -0.1064 -0.9835 -0.0969 -0.9858 -0.0875 C -0.9882 -0.078 -0.9882 -0.0733 -0.9905 -0.0591 C -0.9929 -0.0449 -0.9984 -0.0165 -1 -0.0024 C -1.0016 0.0118 -1 0.0158 -1 0.026 C -1 0.0362 -1 0.0433 -1 0.0591 C -1 0.0749 -1.0008 0.1056 -1 0.1206 C -0.9992 0.1355 -0.9976 0.134 -0.9953 0.1489 C -0.9929 0.1639 -0.989 0.1946 -0.9858 0.2104 C -0.9827 0.2262 -0.9803 0.2325 -0.9764 0.2435 C -0.9724 0.2545 -0.9669 0.2656 -0.9622 0.2766 C -0.9574 0.2876 -0.9551 0.2939 -0.948 0.3097 C -0.9409 0.3255 -0.9275 0.3554 -0.9196 0.3712 C -0.9117 0.3869 -0.907 0.394 -0.9007 0.4043 C -0.8944 0.4145 -0.8928 0.4177 -0.8818 0.4326 C -0.8708 0.4476 -0.8455 0.4791 -0.8345 0.4941 C -0.8235 0.5091 -0.8282 0.5091 -0.8156 0.5225 C -0.803 0.5359 -0.773 0.5619 -0.7589 0.5745 C -0.7447 0.5871 -0.74 0.5902 -0.7305 0.5981 C -0.721 0.606 -0.7116 0.6139 -0.7021 0.6217 C -0.6927 0.6296 -0.6895 0.6344 -0.6738 0.6454 C -0.658 0.6564 -0.6241 0.6769 -0.6076 0.6879 C -0.591 0.699 -0.5863 0.7037 -0.5745 0.7116 C -0.5626 0.7195 -0.5563 0.725 -0.5366 0.7352 C -0.5169 0.7455 -0.4768 0.7636 -0.4563 0.773 C -0.4358 0.7825 -0.4358 0.7825 -0.4137 0.792 C -0.3916 0.8014 -0.3467 0.8211 -0.3239 0.8298 C -0.301 0.8385 -0.2924 0.8392 -0.2766 0.844 C -0.2608 0.8487 -0.2451 0.8542 -0.2293 0.8582 C -0.2136 0.8621 -0.2143 0.8621 -0.182 0.8676 C -0.1497 0.8731 -0.0599 0.8873 -0.0355 0.8913 C -0.011 0.8952 -0.052 0.8897 -0.0355 0.8913 C -0.0189 0.8928 0.0386 0.8991 0.0638 0.9007 C 0.089 0.9023 0.0993 0.9007 0.1158 0.9007 C 0.1324 0.9007 0.1387 0.9015 0.1631 0.9007 C 0.1875 0.8999 0.238 0.8976 0.2624 0.896 C 0.2868 0.8944 0.3097 0.8913 0.3097 0.8913 Z M 0.305 0.9716 C 0.305 0.9716 0.2994 0.974 0.305 0.9716 C 0.3105 0.9693 0.3325 0.9598 0.3381 0.9574 C 0.3436 0.9551 0.3325 0.9598 0.3381 0.9574 C 0.3436 0.9551 0.3656 0.9456 0.3712 0.9433 C 0.3767 0.9409 0.3609 0.9488 0.3712 0.9433 C 0.3814 0.9377 0.4224 0.9157 0.4326 0.9102 C 0.4429 0.9046 0.4287 0.9141 0.4326 0.9102 C 0.4366 0.9062 0.4476 0.8936 0.4563 0.8865 C 0.4649 0.8794 0.4799 0.8708 0.4846 0.8676 C 0.4894 0.8645 0.4807 0.8716 0.4846 0.8676 C 0.4886 0.8637 0.5004 0.8519 0.5083 0.844 C 0.5162 0.8361 0.528 0.8243 0.5319 0.8203 C 0.5359 0.8164 0.528 0.8243 0.5319 0.8203 C 0.5359 0.8164 0.5485 0.8046 0.5556 0.7967 C 0.5626 0.7888 0.5713 0.777 0.5745 0.773 C 0.5776 0.7691 0.5713 0.777 0.5745 0.773 C 0.5776 0.7691 0.5879 0.7581 0.5934 0.7494 C 0.5989 0.7407 0.6052 0.7258 0.6076 0.721 C 0.6099 0.7163 0.6052 0.7258 0.6076 0.721 C 0.6099 0.7163 0.617 0.7013 0.6217 0.6927 C 0.6265 0.684 0.6336 0.673 0.6359 0.669 C 0.6383 0.6651 0.6344 0.6738 0.6359 0.669 C 0.6375 0.6643 0.6415 0.6501 0.6454 0.6407 C 0.6493 0.6312 0.6572 0.617 0.6596 0.6123 C 0.6619 0.6076 0.658 0.617 0.6596 0.6123 C 0.6612 0.6076 0.6659 0.5942 0.669 0.5839 C 0.6722 0.5737 0.6769 0.5563 0.6785 0.5508 C 0.6801 0.5453 0.6769 0.5556 0.6785 0.5508 C 0.6801 0.5461 0.6856 0.5319 0.6879 0.5225 C 0.6903 0.513 0.6919 0.4988 0.6927 0.4941 C 0.6935 0.4894 0.6919 0.4996 0.6927 0.4941 C 0.6935 0.4886 0.6966 0.472 0.6974 0.461 C 0.6982 0.45 0.6974 0.4381 0.6974 0.4279 C 0.6974 0.4177 0.6974 0.4043 0.6974 0.3995 C 0.6974 0.3948 0.6982 0.405 0.6974 0.3995 C 0.6966 0.394 0.6935 0.3719 0.6927 0.3664 C 0.6919 0.3609 0.6935 0.3712 0.6927 0.3664 C 0.6919 0.3617 0.6895 0.3475 0.6879 0.3381 C 0.6864 0.3286 0.684 0.3144 0.6832 0.3097 C 0.6824 0.305 0.6848 0.3152 0.6832 0.3097 C 0.6816 0.3042 0.6777 0.2868 0.6738 0.2766 C 0.6698 0.2664 0.6619 0.253 0.6596 0.2482 C 0.6572 0.2435 0.6612 0.253 0.6596 0.2482 C 0.658 0.2435 0.6548 0.2293 0.6501 0.2199 C 0.6454 0.2104 0.6375 0.2009 0.6312 0.1915 C 0.6249 0.182 0.6154 0.1678 0.6123 0.1631 C 0.6091 0.1584 0.6154 0.1671 0.6123 0.1631 C 0.6091 0.1592 0.5965 0.1434 0.5934 0.1395 C 0.5902 0.1355 0.5981 0.1442 0.5934 0.1395 C 0.5887 0.1348 0.5737 0.1198 0.565 0.1111 C 0.5563 0.1024 0.5508 0.0954 0.5414 0.0875 C 0.5319 0.0796 0.5138 0.0678 0.5083 0.0638 C 0.5028 0.0599 0.5146 0.067 0.5083 0.0638 C 0.502 0.0607 0.4831 0.0512 0.4704 0.0449 C 0.4578 0.0386 0.4389 0.0292 0.4326 0.026 C 0.4263 0.0229 0.4397 0.0292 0.4326 0.026 C 0.4255 0.0229 0.3972 0.0102 0.3901 0.0071 C 0.383 0.0039 0.3972 0.0095 0.3901 0.0071 C 0.383 0.0047 0.3625 -0.0024 0.3475 -0.0071 C 0.3325 -0.0118 0.316 -0.0165 0.3002 -0.0213 C 0.2845 -0.026 0.2608 -0.0331 0.253 -0.0355 C 0.2451 -0.0378 0.2616 -0.0331 0.253 -0.0355 C 0.2443 -0.0378 0.2175 -0.0457 0.2009 -0.0496 C 0.1844 -0.0536 0.1702 -0.0552 0.1537 -0.0591 C 0.1371 -0.063 0.1103 -0.0709 0.1017 -0.0733 C 0.093 -0.0757 0.1103 -0.0717 0.1017 -0.0733 C 0.093 -0.0749 0.0583 -0.0812 0.0496 -0.0827 C 0.041 -0.0843 0.0575 -0.0812 0.0496 -0.0827 C 0.0418 -0.0843 0.0189 -0.0883 0.0024 -0.0922 C -0.0142 -0.0961 -0.0331 -0.1024 -0.0496 -0.1064 C -0.0662 -0.1103 -0.089 -0.1143 -0.0969 -0.1158 C -0.1048 -0.1174 -0.089 -0.1143 -0.0969 -0.1158 C -0.1048 -0.1174 -0.1363 -0.1237 -0.1442 -0.1253 C -0.1521 -0.1269 -0.1371 -0.1229 -0.1442 -0.1253 C -0.1513 -0.1277 -0.1718 -0.1348 -0.1868 -0.1395 C -0.2017 -0.1442 -0.2191 -0.1489 -0.234 -0.1537 C -0.249 -0.1584 -0.2695 -0.1655 -0.2766 -0.1678 C -0.2837 -0.1702 -0.2703 -0.1655 -0.2766 -0.1678 C -0.2829 -0.1702 -0.3081 -0.1797 -0.3144 -0.182 C -0.3207 -0.1844 -0.3089 -0.1789 -0.3144 -0.182 C -0.3199 -0.1852 -0.3365 -0.1946 -0.3475 -0.2009 C -0.3585 -0.2072 -0.3696 -0.2128 -0.3806 -0.2199 C -0.3916 -0.227 -0.4082 -0.2396 -0.4137 -0.2435 C -0.4192 -0.2474 -0.4082 -0.2403 -0.4137 -0.2435 C -0.4192 -0.2467 -0.4413 -0.2593 -0.4468 -0.2624 C -0.4523 -0.2656 -0.4421 -0.2585 -0.4468 -0.2624 C -0.4515 -0.2664 -0.4665 -0.2782 -0.4752 -0.2861 C -0.4838 -0.2939 -0.4901 -0.3018 -0.4988 -0.3097 C -0.5075 -0.3176 -0.5225 -0.3294 -0.5272 -0.3333 C -0.5319 -0.3373 -0.524 -0.3294 -0.5272 -0.3333 C -0.5303 -0.3373 -0.539 -0.3491 -0.5461 -0.357 C -0.5532 -0.3649 -0.5658 -0.3767 -0.5697 -0.3806 C -0.5737 -0.3846 -0.5674 -0.3759 -0.5697 -0.3806 C -0.5721 -0.3853 -0.5792 -0.3995 -0.5839 -0.409 C -0.5887 -0.4184 -0.5957 -0.4326 -0.5981 -0.4374 C -0.6005 -0.4421 -0.5957 -0.4334 -0.5981 -0.4374 C -0.6005 -0.4413 -0.6084 -0.4523 -0.6123 -0.461 C -0.6162 -0.4697 -0.6202 -0.4846 -0.6217 -0.4894 C -0.6233 -0.4941 -0.6202 -0.4854 -0.6217 -0.4894 C -0.6233 -0.4933 -0.6296 -0.5043 -0.6312 -0.513 C -0.6328 -0.5217 -0.6312 -0.5366 -0.6312 -0.5414 C -0.6312 -0.5461 -0.6304 -0.5366 -0.6312 -0.5414 C -0.632 -0.5461 -0.6351 -0.565 -0.6359 -0.5697 C -0.6367 -0.5745 -0.6367 -0.565 -0.6359 -0.5697 C -0.6351 -0.5745 -0.6328 -0.5887 -0.6312 -0.5981 C -0.6296 -0.6076 -0.6281 -0.617 -0.6265 -0.6265 C -0.6249 -0.6359 -0.6225 -0.6501 -0.6217 -0.6548 C -0.621 -0.6596 -0.6233 -0.6509 -0.6217 -0.6548 C -0.6202 -0.6588 -0.617 -0.6698 -0.6123 -0.6785 C -0.6076 -0.6872 -0.5965 -0.7021 -0.5934 -0.7069 C -0.5902 -0.7116 -0.5957 -0.7021 -0.5934 -0.7069 C -0.591 -0.7116 -0.5855 -0.7266 -0.5792 -0.7352 C -0.5729 -0.7439 -0.5595 -0.7549 -0.5556 -0.7589 C -0.5516 -0.7628 -0.5603 -0.7549 -0.5556 -0.7589 C -0.5508 -0.7628 -0.5319 -0.7786 -0.5272 -0.7825 C -0.5225 -0.7864 -0.5319 -0.7786 -0.5272 -0.7825 C -0.5225 -0.7864 -0.5099 -0.7983 -0.4988 -0.8061 C -0.4878 -0.814 -0.4728 -0.8219 -0.461 -0.8298 C -0.4492 -0.8377 -0.4334 -0.8495 -0.4279 -0.8534 C -0.4224 -0.8574 -0.435 -0.8503 -0.4279 -0.8534 C -0.4208 -0.8566 -0.3995 -0.866 -0.3853 -0.8723 C -0.3712 -0.8786 -0.3499 -0.8881 -0.3428 -0.8913 C -0.3357 -0.8944 -0.3507 -0.8889 -0.3428 -0.8913 C -0.3349 -0.8936 -0.3105 -0.9007 -0.2955 -0.9054 C -0.2805 -0.9102 -0.26 -0.9173 -0.253 -0.9196 C -0.2459 -0.922 -0.2616 -0.9173 -0.253 -0.9196 C -0.2443 -0.922 -0.2175 -0.9299 -0.2009 -0.9338 C -0.1844 -0.9377 -0.1615 -0.9417 -0.1537 -0.9433 C -0.1458 -0.9448 -0.1623 -0.9417 -0.1537 -0.9433 C -0.145 -0.9448 -0.1182 -0.9496 -0.1017 -0.9527 C -0.0851 -0.9559 -0.0623 -0.9606 -0.0544 -0.9622 C -0.0465 -0.9638 -0.063 -0.9614 -0.0544 -0.9622 C -0.0457 -0.963 -0.0189 -0.9653 -0.0024 -0.9669 C 0.0142 -0.9685 0.037 -0.9708 0.0449 -0.9716 C 0.0528 -0.9724 0.037 -0.9716 0.0449 -0.9716 C 0.0528 -0.9716 0.0764 -0.9716 0.0922 -0.9716 C 0.108 -0.9716 0.1316 -0.9716 0.1395 -0.9716 C 0.1474 -0.9716 0.1316 -0.9724 0.1395 -0.9716 C 0.1474 -0.9708 0.171 -0.9685 0.1868 -0.9669 C 0.2025 -0.9653 0.2262 -0.963 0.234 -0.9622 C 0.2419 -0.9614 0.227 -0.963 0.234 -0.9622 C 0.2411 -0.9614 0.2616 -0.9598 0.2766 -0.9574 C 0.2916 -0.9551 0.316 -0.9496 0.3239 -0.948 C 0.3318 -0.9464 0.3176 -0.9504 0.3239 -0.948 C 0.3302 -0.9456 0.3554 -0.9362 0.3617 -0.9338 C 0.368 -0.9314 0.3617 -0.9338 0.3617 -0.9338 C 0.3617 -0.9338 0.3483 -0.9393 0.3617 -0.9338 C 0.3751 -0.9283 0.4224 -0.9086 0.4421 -0.9007 C 0.4618 -0.8928 0.4736 -0.8889 0.4799 -0.8865 C 0.4862 -0.8842 0.4744 -0.8905 0.4799 -0.8865 C 0.4854 -0.8826 0.5028 -0.8708 0.513 -0.8629 C 0.5232 -0.855 0.5319 -0.8471 0.5414 -0.8392 C 0.5508 -0.8314 0.565 -0.8195 0.5697 -0.8156 C 0.5745 -0.8117 0.565 -0.8203 0.5697 -0.8156 C 0.5745 -0.8109 0.5934 -0.792 0.5981 -0.7872 C 0.6028 -0.7825 0.5934 -0.792 0.5981 -0.7872 C 0.6028 -0.7825 0.617 -0.7683 0.6265 -0.7589 C 0.6359 -0.7494 0.6462 -0.7407 0.6548 -0.7305 C 0.6635 -0.7203 0.6745 -0.7029 0.6785 -0.6974 C 0.6824 -0.6919 0.6745 -0.7029 0.6785 -0.6974 C 0.6824 -0.6919 0.6982 -0.6698 0.7021 -0.6643 C 0.7061 -0.6588 0.699 -0.6698 0.7021 -0.6643 C 0.7053 -0.6588 0.7179 -0.6367 0.721 -0.6312 C 0.7242 -0.6257 0.7171 -0.6375 0.721 -0.6312 C 0.725 -0.6249 0.7376 -0.6052 0.7447 -0.5934 C 0.7518 -0.5816 0.7565 -0.5721 0.7636 -0.5603 C 0.7707 -0.5485 0.7833 -0.5288 0.7872 -0.5225 C 0.7912 -0.5162 0.7841 -0.5288 0.7872 -0.5225 C 0.7904 -0.5162 0.7998 -0.4972 0.8061 -0.4846 C 0.8125 -0.472 0.818 -0.4594 0.8251 -0.4468 C 0.8322 -0.4342 0.8448 -0.4153 0.8487 -0.409 C 0.8526 -0.4027 0.8463 -0.4161 0.8487 -0.409 C 0.8511 -0.4019 0.8605 -0.3735 0.8629 -0.3664 C 0.8652 -0.3593 0.8597 -0.3727 0.8629 -0.3664 C 0.866 -0.3601 0.8763 -0.342 0.8818 -0.3286 C 0.8873 -0.3152 0.8913 -0.2994 0.896 -0.2861 C 0.9007 -0.2727 0.9078 -0.2545 0.9102 -0.2482 C 0.9125 -0.2419 0.9078 -0.2553 0.9102 -0.2482 C 0.9125 -0.2411 0.9196 -0.2199 0.9243 -0.2057 C 0.9291 -0.1915 0.9362 -0.1702 0.9385 -0.1631 C 0.9409 -0.156 0.9385 -0.1631 0.9385 -0.1631 C 0.9385 -0.1631 0.9346 -0.1773 0.9385 -0.1631 C 0.9425 -0.1489 0.9582 -0.0922 0.9622 -0.078 C 0.9661 -0.0638 0.9606 -0.0851 0.9622 -0.078 C 0.9638 -0.0709 0.9701 -0.0426 0.9716 -0.0355 C 0.9732 -0.0284 0.9701 -0.0426 0.9716 -0.0355 C 0.9732 -0.0284 0.9779 -0.0071 0.9811 0.0071 C 0.9842 0.0213 0.9882 0.0355 0.9905 0.0496 C 0.9929 0.0638 0.9945 0.0851 0.9953 0.0922 C 0.9961 0.0993 0.9945 0.0859 0.9953 0.0922 C 0.9961 0.0985 0.9992 0.1237 1 0.13 C 1.0008 0.1363 1 0.1229 1 0.13 C 1 0.1371 1 0.1592 1 0.1726 C 1 0.186 1.0008 0.197 1 0.2104 C 0.9992 0.2238 0.9961 0.2459 0.9953 0.253 C 0.9945 0.26 0.9961 0.2467 0.9953 0.253 C 0.9945 0.2593 0.9913 0.2845 0.9905 0.2908 C 0.9898 0.2971 0.9913 0.2845 0.9905 0.2908 C 0.9898 0.2971 0.9866 0.3223 0.9858 0.3286 C 0.985 0.3349 0.989 0.316 0.9858 0.3286 C 0.9827 0.3412 0.9716 0.3861 0.9669 0.4043 C 0.9622 0.4224 0.959 0.4318 0.9574 0.4374 C 0.9559 0.4429 0.9598 0.4318 0.9574 0.4374 C 0.9551 0.4429 0.9456 0.4649 0.9433 0.4704 C 0.9409 0.476 0.9456 0.4649 0.9433 0.4704 C 0.9409 0.476 0.9338 0.4925 0.9291 0.5035 C 0.9243 0.5146 0.9173 0.5311 0.9149 0.5366 C 0.9125 0.5422 0.9149 0.5366 0.9149 0.5366 C 0.9149 0.5366 0.922 0.5264 0.9149 0.5366 C 0.9078 0.5469 0.8794 0.5879 0.8723 0.5981 C 0.8652 0.6084 0.8763 0.5926 0.8723 0.5981 C 0.8684 0.6036 0.8566 0.621 0.8487 0.6312 C 0.8408 0.6414 0.8337 0.6501 0.8251 0.6596 C 0.8164 0.669 0.8014 0.6832 0.7967 0.6879 C 0.792 0.6927 0.8022 0.6832 0.7967 0.6879 C 0.7912 0.6927 0.7691 0.7116 0.7636 0.7163 C 0.7581 0.721 0.7691 0.7124 0.7636 0.7163 C 0.7581 0.7203 0.7415 0.7321 0.7305 0.74 C 0.7195 0.7478 0.71 0.7565 0.6974 0.7636 C 0.6848 0.7707 0.6619 0.7794 0.6548 0.7825 C 0.6478 0.7857 0.6612 0.7794 0.6548 0.7825 C 0.6485 0.7857 0.6233 0.7983 0.617 0.8014 C 0.6107 0.8046 0.6233 0.7983 0.617 0.8014 C 0.6107 0.8046 0.5926 0.814 0.5792 0.8203 C 0.5658 0.8266 0.5437 0.8361 0.5366 0.8392 C 0.5296 0.8424 0.5366 0.8392 0.5366 0.8392 C 0.5366 0.8392 0.5516 0.8353 0.5366 0.8392 C 0.5217 0.8432 0.4618 0.8589 0.4468 0.8629 C 0.4318 0.8668 0.4539 0.8613 0.4468 0.8629 C 0.4397 0.8645 0.4192 0.8692 0.4043 0.8723 C 0.3893 0.8755 0.3727 0.8786 0.357 0.8818 C 0.3412 0.8849 0.3097 0.8913 0.3097 0.8913 C 0.3097 0.8913 0.3412 0.8849 0.357 0.8818 C 0.3727 0.8786 0.3893 0.8755 0.4043 0.8723 C 0.4192 0.8692 0.4397 0.8645 0.4468 0.8629 C 0.4539 0.8613 0.4318 0.8668 0.4468 0.8629 C 0.4618 0.8589 0.5217 0.8432 0.5366 0.8392 C 0.5516 0.8353 0.5366 0.8392 0.5366 0.8392 C 0.5366 0.8392 0.5296 0.8424 0.5366 0.8392 C 0.5437 0.8361 0.5658 0.8266 0.5792 0.8203 C 0.5926 0.814 0.6107 0.8046 0.617 0.8014 C 0.6233 0.7983 0.6107 0.8046 0.617 0.8014 C 0.6233 0.7983 0.6485 0.7857 0.6548 0.7825 C 0.6612 0.7794 0.6478 0.7857 0.6548 0.7825 C 0.6619 0.7794 0.6848 0.7707 0.6974 0.7636 C 0.71 0.7565 0.7195 0.7478 0.7305 0.74 C 0.7415 0.7321 0.7581 0.7203 0.7636 0.7163 C 0.7691 0.7124 0.7581 0.721 0.7636 0.7163 C 0.7691 0.7116 0.7912 0.6927 0.7967 0.6879 C 0.8022 0.6832 0.792 0.6927 0.7967 0.6879 C 0.8014 0.6832 0.8164 0.669 0.8251 0.6596 C 0.8337 0.6501 0.8408 0.6414 0.8487 0.6312 C 0.8566 0.621 0.8684 0.6036 0.8723 0.5981 C 0.8763 0.5926 0.8652 0.6084 0.8723 0.5981 C 0.8794 0.5879 0.9078 0.5469 0.9149 0.5366 C 0.922 0.5264 0.9149 0.5366 0.9149 0.5366 C 0.9149 0.5366 0.9125 0.5422 0.9149 0.5366 C 0.9173 0.5311 0.9243 0.5146 0.9291 0.5035 C 0.9338 0.4925 0.9409 0.476 0.9433 0.4704 C 0.9456 0.4649 0.9409 0.476 0.9433 0.4704 C 0.9456 0.4649 0.9551 0.4429 0.9574 0.4374 C 0.9598 0.4318 0.9559 0.4429 0.9574 0.4374 C 0.959 0.4318 0.9622 0.4224 0.9669 0.4043 C 0.9716 0.3861 0.9827 0.3412 0.9858 0.3286 C 0.989 0.316 0.985 0.3349 0.9858 0.3286 C 0.9866 0.3223 0.9898 0.2971 0.9905 0.2908 C 0.9913 0.2845 0.9898 0.2971 0.9905 0.2908 C 0.9913 0.2845 0.9945 0.2593 0.9953 0.253 C 0.9961 0.2467 0.9945 0.26 0.9953 0.253 C 0.9961 0.2459 0.9992 0.2238 1 0.2104 C 1.0008 0.197 1 0.186 1 0.1726 C 1 0.1592 1 0.1371 1 0.13 C 1 0.1229 1.0008 0.1363 1 0.13 C 0.9992 0.1237 0.9961 0.0985 0.9953 0.0922 C 0.9945 0.0859 0.9961 0.0993 0.9953 0.0922 C 0.9945 0.0851 0.9929 0.0638 0.9905 0.0496 C 0.9882 0.0355 0.9842 0.0213 0.9811 0.0071 C 0.9779 -0.0071 0.9732 -0.0284 0.9716 -0.0355 C 0.9701 -0.0426 0.9732 -0.0284 0.9716 -0.0355 C 0.9701 -0.0426 0.9638 -0.0709 0.9622 -0.078 C 0.9606 -0.0851 0.9661 -0.0638 0.9622 -0.078 C 0.9582 -0.0922 0.9425 -0.1489 0.9385 -0.1631 C 0.9346 -0.1773 0.9385 -0.1631 0.9385 -0.1631 C 0.9385 -0.1631 0.9409 -0.156 0.9385 -0.1631 C 0.9362 -0.1702 0.9291 -0.1915 0.9243 -0.2057 C 0.9196 -0.2199 0.9125 -0.2411 0.9102 -0.2482 C 0.9078 -0.2553 0.9125 -0.2419 0.9102 -0.2482 C 0.9078 -0.2545 0.9007 -0.2727 0.896 -0.2861 C 0.8913 -0.2994 0.8873 -0.3152 0.8818 -0.3286 C 0.8763 -0.342 0.866 -0.3601 0.8629 -0.3664 C 0.8597 -0.3727 0.8652 -0.3593 0.8629 -0.3664 C 0.8605 -0.3735 0.8511 -0.4019 0.8487 -0.409 C 0.8463 -0.4161 0.8526 -0.4027 0.8487 -0.409 C 0.8448 -0.4153 0.8322 -0.4342 0.8251 -0.4468 C 0.818 -0.4594 0.8125 -0.472 0.8061 -0.4846 C 0.7998 -0.4972 0.7904 -0.5162 0.7872 -0.5225 C 0.7841 -0.5288 0.7912 -0.5162 0.7872 -0.5225 C 0.7833 -0.5288 0.7707 -0.5485 0.7636 -0.5603 C 0.7565 -0.5721 0.7518 -0.5816 0.7447 -0.5934 C 0.7376 -0.6052 0.725 -0.6249 0.721 -0.6312 C 0.7171 -0.6375 0.7242 -0.6257 0.721 -0.6312 C 0.7179 -0.6367 0.7053 -0.6588 0.7021 -0.6643 C 0.699 -0.6698 0.7061 -0.6588 0.7021 -0.6643 C 0.6982 -0.6698 0.6824 -0.6919 0.6785 -0.6974 C 0.6745 -0.7029 0.6824 -0.6919 0.6785 -0.6974 C 0.6745 -0.7029 0.6635 -0.7203 0.6548 -0.7305 C 0.6462 -0.7407 0.6359 -0.7494 0.6265 -0.7589 C 0.617 -0.7683 0.6028 -0.7825 0.5981 -0.7872 C 0.5934 -0.792 0.6028 -0.7825 0.5981 -0.7872 C 0.5934 -0.792 0.5745 -0.8109 0.5697 -0.8156 C 0.565 -0.8203 0.5745 -0.8117 0.5697 -0.8156 C 0.565 -0.8195 0.5508 -0.8314 0.5414 -0.8392 C 0.5319 -0.8471 0.5232 -0.855 0.513 -0.8629 C 0.5028 -0.8708 0.4854 -0.8826 0.4799 -0.8865 C 0.4744 -0.8905 0.4862 -0.8842 0.4799 -0.8865 C 0.4736 -0.8889 0.4618 -0.8928 0.4421 -0.9007 C 0.4224 -0.9086 0.3751 -0.9283 0.3617 -0.9338 C 0.3483 -0.9393 0.3617 -0.9338 0.3617 -0.9338 C 0.3617 -0.9338 0.368 -0.9314 0.3617 -0.9338 C 0.3554 -0.9362 0.3302 -0.9456 0.3239 -0.948 C 0.3176 -0.9504 0.3318 -0.9464 0.3239 -0.948 C 0.316 -0.9496 0.2916 -0.9551 0.2766 -0.9574 C 0.2616 -0.9598 0.2411 -0.9614 0.234 -0.9622 C 0.227 -0.963 0.2419 -0.9614 0.234 -0.9622 C 0.2262 -0.963 0.2025 -0.9653 0.1868 -0.9669 C 0.171 -0.9685 0.1474 -0.9708 0.1395 -0.9716 C 0.1316 -0.9724 0.1474 -0.9716 0.1395 -0.9716 C 0.1316 -0.9716 0.108 -0.9716 0.0922 -0.9716 C 0.0764 -0.9716 0.0528 -0.9716 0.0449 -0.9716 C 0.037 -0.9716 0.0528 -0.9724 0.0449 -0.9716 C 0.037 -0.9708 0.0142 -0.9685 -0.0024 -0.9669 C -0.0189 -0.9653 -0.0457 -0.963 -0.0544 -0.9622 C -0.063 -0.9614 -0.0465 -0.9638 -0.0544 -0.9622 C -0.0623 -0.9606 -0.0851 -0.9559 -0.1017 -0.9527 C -0.1182 -0.9496 -0.145 -0.9448 -0.1537 -0.9433 C -0.1623 -0.9417 -0.1458 -0.9448 -0.1537 -0.9433 C -0.1615 -0.9417 -0.1844 -0.9377 -0.2009 -0.9338 C -0.2175 -0.9299 -0.2443 -0.922 -0.253 -0.9196 C -0.2616 -0.9173 -0.2459 -0.922 -0.253 -0.9196 C -0.26 -0.9173 -0.2805 -0.9102 -0.2955 -0.9054 C -0.3105 -0.9007 -0.3349 -0.8936 -0.3428 -0.8913 C -0.3507 -0.8889 -0.3357 -0.8944 -0.3428 -0.8913 C -0.3499 -0.8881 -0.3712 -0.8786 -0.3853 -0.8723 C -0.3995 -0.866 -0.4208 -0.8566 -0.4279 -0.8534 C -0.435 -0.8503 -0.4224 -0.8574 -0.4279 -0.8534 C -0.4334 -0.8495 -0.4492 -0.8377 -0.461 -0.8298 C -0.4728 -0.8219 -0.4878 -0.814 -0.4988 -0.8061 C -0.5099 -0.7983 -0.5225 -0.7864 -0.5272 -0.7825 C -0.5319 -0.7786 -0.5225 -0.7864 -0.5272 -0.7825 C -0.5319 -0.7786 -0.5508 -0.7628 -0.5556 -0.7589 C -0.5603 -0.7549 -0.5516 -0.7628 -0.5556 -0.7589 C -0.5595 -0.7549 -0.5729 -0.7439 -0.5792 -0.7352 C -0.5855 -0.7266 -0.591 -0.7116 -0.5934 -0.7069 C -0.5957 -0.7021 -0.5902 -0.7116 -0.5934 -0.7069 C -0.5965 -0.7021 -0.6076 -0.6872 -0.6123 -0.6785 C -0.617 -0.6698 -0.6202 -0.6588 -0.6217 -0.6548 C -0.6233 -0.6509 -0.621 -0.6596 -0.6217 -0.6548 C -0.6225 -0.6501 -0.6249 -0.6359 -0.6265 -0.6265 C -0.6281 -0.617 -0.6296 -0.6076 -0.6312 -0.5981 C -0.6328 -0.5887 -0.6351 -0.5745 -0.6359 -0.5697 C -0.6367 -0.565 -0.6367 -0.5745 -0.6359 -0.5697 C -0.6351 -0.565 -0.632 -0.5461 -0.6312 -0.5414 C -0.6304 -0.5366 -0.6312 -0.5461 -0.6312 -0.5414 C -0.6312 -0.5366 -0.6328 -0.5217 -0.6312 -0.513 C -0.6296 -0.5043 -0.6233 -0.4933 -0.6217 -0.4894 C -0.6202 -0.4854 -0.6233 -0.4941 -0.6217 -0.4894 C -0.6202 -0.4846 -0.6162 -0.4697 -0.6123 -0.461 C -0.6084 -0.4523 -0.6005 -0.4413 -0.5981 -0.4374 C -0.5957 -0.4334 -0.6005 -0.4421 -0.5981 -0.4374 C -0.5957 -0.4326 -0.5887 -0.4184 -0.5839 -0.409 C -0.5792 -0.3995 -0.5721 -0.3853 -0.5697 -0.3806 C -0.5674 -0.3759 -0.5737 -0.3846 -0.5697 -0.3806 C -0.5658 -0.3767 -0.5532 -0.3649 -0.5461 -0.357 C -0.539 -0.3491 -0.5303 -0.3373 -0.5272 -0.3333 C -0.524 -0.3294 -0.5319 -0.3373 -0.5272 -0.3333 C -0.5225 -0.3294 -0.5075 -0.3176 -0.4988 -0.3097 C -0.4901 -0.3018 -0.4838 -0.2939 -0.4752 -0.2861 C -0.4665 -0.2782 -0.4515 -0.2664 -0.4468 -0.2624 C -0.4421 -0.2585 -0.4523 -0.2656 -0.4468 -0.2624 C -0.4413 -0.2593 -0.4192 -0.2467 -0.4137 -0.2435 C -0.4082 -0.2403 -0.4192 -0.2474 -0.4137 -0.2435 C -0.4082 -0.2396 -0.3916 -0.227 -0.3806 -0.2199 C -0.3696 -0.2128 -0.3585 -0.2072 -0.3475 -0.2009 C -0.3365 -0.1946 -0.3199 -0.1852 -0.3144 -0.182 C -0.3089 -0.1789 -0.3207 -0.1844 -0.3144 -0.182 C -0.3081 -0.1797 -0.2829 -0.1702 -0.2766 -0.1678 C -0.2703 -0.1655 -0.2837 -0.1702 -0.2766 -0.1678 C -0.2695 -0.1655 -0.249 -0.1584 -0.234 -0.1537 C -0.2191 -0.1489 -0.2017 -0.1442 -0.1868 -0.1395 C -0.1718 -0.1348 -0.1513 -0.1277 -0.1442 -0.1253 C -0.1371 -0.1229 -0.1521 -0.1269 -0.1442 -0.1253 C -0.1363 -0.1237 -0.1048 -0.1174 -0.0969 -0.1158 C -0.089 -0.1143 -0.1048 -0.1174 -0.0969 -0.1158 C -0.089 -0.1143 -0.0662 -0.1103 -0.0496 -0.1064 C -0.0331 -0.1024 -0.0142 -0.0961 0.0024 -0.0922 C 0.0189 -0.0883 0.0418 -0.0843 0.0496 -0.0827 C 0.0575 -0.0812 0.041 -0.0843 0.0496 -0.0827 C 0.0583 -0.0812 0.093 -0.0749 0.1017 -0.0733 C 0.1103 -0.0717 0.093 -0.0757 0.1017 -0.0733 C 0.1103 -0.0709 0.1371 -0.063 0.1537 -0.0591 C 0.1702 -0.0552 0.1844 -0.0536 0.2009 -0.0496 C 0.2175 -0.0457 0.2443 -0.0378 0.253 -0.0355 C 0.2616 -0.0331 0.2451 -0.0378 0.253 -0.0355 C 0.2608 -0.0331 0.2845 -0.026 0.3002 -0.0213 C 0.316 -0.0165 0.3325 -0.0118 0.3475 -0.0071 C 0.3625 -0.0024 0.383 0.0047 0.3901 0.0071 C 0.3972 0.0095 0.383 0.0039 0.3901 0.0071 C 0.3972 0.0102 0.4255 0.0229 0.4326 0.026 C 0.4397 0.0292 0.4263 0.0229 0.4326 0.026 C 0.4389 0.0292 0.4578 0.0386 0.4704 0.0449 C 0.4831 0.0512 0.502 0.0607 0.5083 0.0638 C 0.5146 0.067 0.5028 0.0599 0.5083 0.0638 C 0.5138 0.0678 0.5319 0.0796 0.5414 0.0875 C 0.5508 0.0954 0.5563 0.1024 0.565 0.1111 C 0.5737 0.1198 0.5887 0.1348 0.5934 0.1395 C 0.5981 0.1442 0.5902 0.1355 0.5934 0.1395 C 0.5965 0.1434 0.6091 0.1592 0.6123 0.1631 C 0.6154 0.1671 0.6091 0.1584 0.6123 0.1631 C 0.6154 0.1678 0.6249 0.182 0.6312 0.1915 C 0.6375 0.2009 0.6454 0.2104 0.6501 0.2199 C 0.6548 0.2293 0.658 0.2435 0.6596 0.2482 C 0.6612 0.253 0.6572 0.2435 0.6596 0.2482 C 0.6619 0.253 0.6698 0.2664 0.6738 0.2766 C 0.6777 0.2868 0.6816 0.3042 0.6832 0.3097 C 0.6848 0.3152 0.6824 0.305 0.6832 0.3097 C 0.684 0.3144 0.6864 0.3286 0.6879 0.3381 C 0.6895 0.3475 0.6919 0.3617 0.6927 0.3664 C 0.6935 0.3712 0.6919 0.3609 0.6927 0.3664 C 0.6935 0.3719 0.6966 0.394 0.6974 0.3995 C 0.6982 0.405 0.6974 0.3948 0.6974 0.3995 C 0.6974 0.4043 0.6974 0.4177 0.6974 0.4279 C 0.6974 0.4381 0.6982 0.45 0.6974 0.461 C 0.6966 0.472 0.6935 0.4886 0.6927 0.4941 C 0.6919 0.4996 0.6935 0.4894 0.6927 0.4941 C 0.6919 0.4988 0.6903 0.513 0.6879 0.5225 C 0.6856 0.5319 0.6801 0.5461 0.6785 0.5508 C 0.6769 0.5556 0.6801 0.5453 0.6785 0.5508 C 0.6769 0.5563 0.6722 0.5737 0.669 0.5839 C 0.6659 0.5942 0.6612 0.6076 0.6596 0.6123 C 0.658 0.617 0.6619 0.6076 0.6596 0.6123 C 0.6572 0.617 0.6493 0.6312 0.6454 0.6407 C 0.6415 0.6501 0.6375 0.6643 0.6359 0.669 C 0.6344 0.6738 0.6383 0.6651 0.6359 0.669 C 0.6336 0.673 0.6265 0.684 0.6217 0.6927 C 0.617 0.7013 0.6099 0.7163 0.6076 0.721 C 0.6052 0.7258 0.6099 0.7163 0.6076 0.721 C 0.6052 0.7258 0.5989 0.7407 0.5934 0.7494 C 0.5879 0.7581 0.5776 0.7691 0.5745 0.773 C 0.5713 0.777 0.5776 0.7691 0.5745 0.773 C 0.5713 0.777 0.5626 0.7888 0.5556 0.7967 C 0.5485 0.8046 0.5359 0.8164 0.5319 0.8203 C 0.528 0.8243 0.5359 0.8164 0.5319 0.8203 C 0.528 0.8243 0.5162 0.8361 0.5083 0.844 C 0.5004 0.8519 0.4886 0.8637 0.4846 0.8676 C 0.4807 0.8716 0.4894 0.8645 0.4846 0.8676 C 0.4799 0.8708 0.4649 0.8794 0.4563 0.8865 C 0.4476 0.8936 0.4366 0.9062 0.4326 0.9102 C 0.4287 0.9141 0.4429 0.9046 0.4326 0.9102 C 0.4224 0.9157 0.3814 0.9377 0.3712 0.9433 C 0.3609 0.9488 0.3767 0.9409 0.3712 0.9433 C 0.3656 0.9456 0.3436 0.9551 0.3381 0.9574 C 0.3325 0.9598 0.3436 0.9551 0.3381 0.9574 C 0.3325 0.9598 0.3105 0.9693 0.305 0.9716 C 0.2994 0.974 0.305 0.9716 0.305 0.9716 Z"
        fill="none" stroke="black"/>
</svg>
