<?xml version="1.0" encoding="UTF-8"?>

<svg xmlns="http://www.w3.org/2000/svg" viewBox="-1 -1 2 2" data-name="Triangle"
     data-beats="4" data-ppqn="128">
  <path d="M -0 -0.8694 C 0.0078 -0.8694 0.0157 -0.8423 0.0235 -0.8287 C 0.0314 -0.8151 0.0392 -0.8015 0.0471 -0.7879 C 0.0549 -0.7743 0.0627 -0.7607 0.0706 -0.7472 C 0.0784 -0.7336 0.0863 -0.72 0.0941 -0.7064 C 0.102 -0.6928 0.1098 -0.6792 0.1176 -0.6657 C 0.1255 -0.6521 0.1333 -0.6385 0.1412 -0.6249 C 0.149 -0.6113 0.1569 -0.5977 0.1647 -0.5841 C 0.1725 -0.5706 0.1804 -0.557 0.1882 -0.5434 C 0.1961 -0.5298 0.2039 -0.5162 0.2118 -0.5026 C 0.2196 -0.489 0.2275 -0.4755 0.2353 -0.4619 C 0.2431 -0.4483 0.251 -0.4347 0.2588 -0.4211 C 0.2667 -0.4075 0.2745 -0.394 0.2824 -0.3804 C 0.2902 -0.3668 0.298 -0.3532 0.3059 -0.3396 C 0.3137 -0.326 0.3216 -0.3124 0.3294 -0.2989 C 0.3373 -0.2853 0.3451 -0.2717 0.3529 -0.2581 C 0.3608 -0.2445 0.3686 -0.2309 0.3765 -0.2174 C 0.3843 -0.2038 0.3922 -0.1902 0.4 -0.1766 C 0.4078 -0.163 0.4157 -0.1494 0.4235 -0.1358 C 0.4314 -0.1223 0.4392 -0.1087 0.4471 -0.0951 C 0.4549 -0.0815 0.4627 -0.0679 0.4706 -0.0543 C 0.4784 -0.0408 0.4863 -0.0272 0.4941 -0.0136 C 0.502 0 0.5098 0.0136 0.5176 0.0272 C 0.5255 0.0408 0.5333 0.0543 0.5412 0.0679 C 0.549 0.0815 0.5569 0.0951 0.5647 0.1087 C 0.5725 0.1223 0.5804 0.1358 0.5882 0.1494 C 0.5961 0.163 0.6039 0.1766 0.6118 0.1902 C 0.6196 0.2038 0.6275 0.2174 0.6353 0.2309 C 0.6431 0.2445 0.651 0.2581 0.6588 0.2717 C 0.6667 0.2853 0.6745 0.2989 0.6824 0.3124 C 0.6902 0.326 0.698 0.3396 0.7059 0.3532 C 0.7137 0.3668 0.7216 0.3804 0.7294 0.394 C 0.7373 0.4075 0.7451 0.4211 0.7529 0.4347 C 0.7608 0.4483 0.7686 0.4619 0.7765 0.4755 C 0.7843 0.489 0.7922 0.5026 0.8 0.5162 C 0.8078 0.5298 0.8157 0.5434 0.8235 0.557 C 0.8314 0.5706 0.8392 0.5841 0.8471 0.5977 C 0.8549 0.6113 0.8627 0.6249 0.8706 0.6385 C 0.8784 0.6521 0.8863 0.6657 0.8941 0.6792 C 0.902 0.6928 0.9098 0.7064 0.9176 0.72 C 0.9255 0.7336 0.9333 0.7472 0.9412 0.7607 C 0.949 0.7743 0.9569 0.7879 0.9647 0.8015 C 0.9725 0.8151 0.9843 0.8309 0.9882 0.8423 C 0.9922 0.8536 0.9961 0.8649 0.9882 0.8694 C 0.9804 0.8739 0.9569 0.8694 0.9412 0.8694 C 0.9255 0.8694 0.9098 0.8694 0.8941 0.8694 C 0.8784 0.8694 0.8627 0.8694 0.8471 0.8694 C 0.8314 0.8694 0.8157 0.8694 0.8 0.8694 C 0.7843 0.8694 0.7686 0.8694 0.7529 0.8694 C 0.7373 0.8694 0.7216 0.8694 0.7059 0.8694 C 0.6902 0.8694 0.6745 0.8694 0.6588 0.8694 C 0.6431 0.8694 0.6275 0.8694 0.6118 0.8694 C 0.5961 0.8694 0.5804 0.8694 0.5647 0.8694 C 0.549 0.8694 0.5333 0.8694 0.5176 0.8694 C 0.502 0.8694 0.4863 0.8694 0.4706 0.8694 C 0.4549 0.8694 0.4392 0.8694 0.4235 0.8694 C 0.4078 0.8694 0.3922 0.8694 0.3765 0.8694 C 0.3608 0.8694 0.3451 0.8694 0.3294 0.8694 C 0.3137 0.8694 0.298 0.8694 0.2824 0.8694 C 0.2667 0.8694 0.251 0.8694 0.2353 0.8694 C 0.2196 0.8694 0.2039 0.8694 0.1882 0.8694 C 0.1725 0.8694 0.1569 0.8694 0.1412 0.8694 C 0.1255 0.8694 0.1098 0.8694 0.0941 0.8694 C 0.0784 0.8694 0.0627 0.8694 0.0471 0.8694 C 0.0314 0.8694 0.0157 0.8694 0 0.8694 C -0.0157 0.8694 -0.0314 0.8694 -0.0471 0.8694 C -0.0627 0.8694 -0.0784 0.8694 -0.0941 0.8694 C -0.1098 0.8694 -0.1255 0.8694 -0.1412 0.8694 C -0.1569 0.8694 -0.1725 0.8694 -0.1882 0.8694 C -0.2039 0.8694 -0.2196 0.8694 -0.2353 0.8694 C -0.251 0.8694 -0.2667 0.8694 -0.2824 0.8694 C -0.298 0.8694 -0.3137 0.8694 -0.3294 0.8694 C -0.3451 0.8694 -0.3608 0.8694 -0.3765 0.8694 C -0.3922 0.8694 -0.4078 0.8694 -0.4235 0.8694 C -0.4392 0.8694 -0.4549 0.8694 -0.4706 0.8694 C -0.4863 0.8694 -0.502 0.8694 -0.5176 0.8694 C -0.5333 0.8694 -0.549 0.8694 -0.5647 0.8694 C -0.5804 0.8694 -0.5961 0.8694 -0.6118 0.8694 C -0.6275 0.8694 -0.6431 0.8694 -0.6588 0.8694 C -0.6745 0.8694 -0.6902 0.8694 -0.7059 0.8694 C -0.7216 0.8694 -0.7373 0.8694 -0.7529 0.8694 C -0.7686 0.8694 -0.7843 0.8694 -0.8 0.8694 C -0.8157 0.8694 -0.8314 0.8694 -0.8471 0.8694 C -0.8627 0.8694 -0.8784 0.8694 -0.8941 0.8694 C -0.9098 0.8694 -0.9255 0.8694 -0.9412 0.8694 C -0.9569 0.8694 -0.9804 0.8739 -0.9882 0.8694 C -0.9961 0.8649 -0.9922 0.8536 -0.9882 0.8423 C -0.9843 0.8309 -0.9725 0.8151 -0.9647 0.8015 C -0.9569 0.7879 -0.949 0.7743 -0.9412 0.7607 C -0.9333 0.7472 -0.9255 0.7336 -0.9176 0.72 C -0.9098 0.7064 -0.902 0.6928 -0.8941 0.6792 C -0.8863 0.6657 -0.8784 0.6521 -0.8706 0.6385 C -0.8627 0.6249 -0.8549 0.6113 -0.8471 0.5977 C -0.8392 0.5841 -0.8314 0.5706 -0.8235 0.557 C -0.8157 0.5434 -0.8078 0.5298 -0.8 0.5162 C -0.7922 0.5026 -0.7843 0.489 -0.7765 0.4755 C -0.7686 0.4619 -0.7608 0.4483 -0.7529 0.4347 C -0.7451 0.4211 -0.7373 0.4075 -0.7294 0.394 C -0.7216 0.3804 -0.7137 0.3668 -0.7059 0.3532 C -0.698 0.3396 -0.6902 0.326 -0.6824 0.3124 C -0.6745 0.2989 -0.6667 0.2853 -0.6588 0.2717 C -0.651 0.2581 -0.6431 0.2445 -0.6353 0.2309 C -0.6275 0.2174 -0.6196 0.2038 -0.6118 0.1902 C -0.6039 0.1766 -0.5961 0.163 -0.5882 0.1494 C -0.5804 0.1358 -0.5725 0.1223 -0.5647 0.1087 C -0.5569 0.0951 -0.549 0.0815 -0.5412 0.0679 C -0.5333 0.0543 -0.5255 0.0408 -0.5176 0.0272 C -0.5098 0.0136 -0.502 0 -0.4941 -0.0136 C -0.4863 -0.0272 -0.4784 -0.0408 -0.4706 -0.0543 C -0.4627 -0.0679 -0.4549 -0.0815 -0.4471 -0.0951 C -0.4392 -0.1087 -0.4314 -0.1223 -0.4235 -0.1358 C -0.4157 -0.1494 -0.4078 -0.163 -0.4 -0.1766 C -0.3922 -0.1902 -0.3843 -0.2038 -0.3765 -0.2174 C -0.3686 -0.2309 -0.3608 -0.2445 -0.3529 -0.2581 C -0.3451 -0.2717 -0.3373 -0.2853 -0.3294 -0.2989 C -0.3216 -0.3124 -0.3137 -0.326 -0.3059 -0.3396 C -0.298 -0.3532 -0.2902 -0.3668 -0.2824 -0.3804 C -0.2745 -0.394 -0.2667 -0.4075 -0.2588 -0.4211 C -0.251 -0.4347 -0.2431 -0.4483 -0.2353 -0.4619 C -0.2275 -0.4755 -0.2196 -0.489 -0.2118 -0.5026 C -0.2039 -0.5162 -0.1961 -0.5298 -0.1882 -0.5434 C -0.1804 -0.557 -0.1725 -0.5706 -0.1647 -0.5841 C -0.1569 -0.5977 -0.149 -0.6113 -0.1412 -0.6249 C -0.1333 -0.6385 -0.1255 -0.6521 -0.1176 -0.6657 C -0.1098 -0.6792 -0.102 -0.6928 -0.0941 -0.7064 C -0.0863 -0.72 -0.0784 -0.7336 -0.0706 -0.7472 C -0.0627 -0.7607 -0.0549 -0.7743 -0.0471 -0.7879 C -0.0392 -0.8015 -0.0314 -0.8151 -0.0235 -0.8287 C -0.0157 -0.8423 -0.0078 -0.8694 -0 -0.8694"
        fill="none" stroke="black"/>
</svg>
