<svg width="814" height="838" fill="none" xmlns="http://www.w3.org/2000/svg"><path d="M677.542 133.578c0-17.699-7.16-29.233-21.678-34.602 12.728-5.767 19.092-16.107 19.092-31.42 0-5.766-.994-10.937-2.784-15.71-1.989-4.772-4.773-8.75-7.955-12.13-3.381-3.38-7.558-5.965-12.331-7.755-4.972-1.79-10.143-2.784-15.91-2.784-5.37 0-10.541.795-15.115 2.386-4.574 1.79-8.751 4.176-12.132 7.159-3.58 3.182-6.364 6.96-8.551 11.534-1.79 3.38-2.984 7.159-3.58 11.335-.199.994.199 1.988.795 2.784.597.795 1.591 1.193 2.586 1.193h7.756c1.591 0 2.784-1.193 3.182-2.784.994-5.966 3.381-10.739 7.16-14.517 4.375-4.176 10.341-6.363 17.899-6.363 6.961 0 12.728 2.187 17.501 6.562 4.773 4.375 7.16 10.738 7.16 19.29 0 7.954-1.989 14.118-5.967 18.692-4.176 4.574-10.54 6.96-19.291 6.96-1.591 0-2.983 1.392-2.983 2.983v6.562c0 1.591 1.392 2.983 2.983 2.983 9.745 0 16.706 2.386 21.28 7.159 4.376 4.972 6.563 11.733 6.563 20.284 0 8.749-2.585 15.511-7.756 20.283-5.37 4.773-11.734 7.159-19.49 7.159-3.381 0-6.762-.398-9.745-1.392-3.182-.994-5.967-2.386-8.552-4.375-2.586-1.988-4.574-4.574-6.165-7.755-1.194-2.387-1.989-5.171-2.586-8.352-.199-1.591-1.591-2.784-3.182-2.784h-7.756c-.995 0-1.989.397-2.586.994-.596.795-.795 1.591-.795 2.585.597 4.972 1.79 9.148 3.779 12.926 2.187 4.773 5.17 8.75 8.949 11.733 3.779 3.181 7.955 5.568 12.927 6.96 4.972 1.392 10.143 2.187 15.712 2.187 5.767 0 11.137-.795 16.308-2.585 4.972-1.79 9.347-4.176 13.126-7.756 3.779-3.38 6.563-7.556 8.95-12.528 2.187-4.772 3.182-10.539 3.182-17.101Z" fill="#FFFFF3"/><path fill-rule="evenodd" clip-rule="evenodd" d="M634.605 9.958c-36.018 0-67.375 20.162-83.374 49.835l-4.383-2.363 4.383 2.363c-7.189 13.333-11.272 28.588-11.272 44.802 0 52.23 42.411 94.637 94.646 94.637 28.574 0 54.205-12.682 71.567-32.735l.005-.006c14.379-16.607 23.074-38.239 23.074-61.896 0-52.23-42.411-94.637-94.646-94.637Zm75.231 167.283c-19.014 19.686-45.703 31.949-75.231 31.949-57.736 0-104.606-46.865-104.606-104.595 0-15.86 3.541-30.912 9.877-44.393C498.332 45.498 453.604 37.489 407 37.489c-219.152 0-397.04 177.139-397.04 395.278 0 218.135 177.888 395.275 397.04 395.275 219.152 0 397.041-177.14 397.041-395.275 0-97.396-35.454-186.604-94.205-255.526ZM544.592 51.311C562.819 20.61 596.318 0 634.605 0 692.34 0 739.21 46.865 739.21 104.595c0 24.59-8.51 47.217-22.738 65.084C777.259 240.478 814 332.387 814 432.767 814 656.442 631.612 838 407 838S0 656.442 0 432.767C0 209.088 182.388 27.531 407 27.531c48.273 0 94.603 8.387 137.592 23.78Z" fill="#FFFFF3"/><path d="M639.266 678.71c1.6 0 3.999-.811 5.598-3.244.8-1.622 1.599-4.054.8-5.676-25.589-69.736-183.921-509.232-203.912-562.75-.8-3.244-3.999-5.676-7.197-5.676H376.18c-3.199 0-6.397 2.432-7.197 5.676-19.991 53.518-178.323 493.014-203.912 562.75-.8 1.622 0 4.054.8 5.676 1.599 2.433 3.198 3.244 5.597 3.244h76.767c3.199 0 6.397-2.433 7.197-5.677 7.997-22.704 37.584-110.279 37.584-110.279h224.703s29.587 87.575 37.584 110.279c.799 3.244 3.998 5.677 7.196 5.677h76.767ZM493.729 488.153H318.605l88.761-256.238 86.363 256.238Z" fill="#FFFFF3"/></svg>